# This file uses meters as units for non-parametric coordinates.

mtllib teja.mtl
g default
v -0.840498 0.408369 0.057077
v 0.547587 0.477362 0.640821
v 0.568438 0.497400 0.588871
v -0.819647 0.428407 0.005127
v -0.841322 0.427886 0.056730
v 0.546762 0.496880 0.640476
v 0.516708 0.496880 0.711943
v -0.871377 0.427886 0.128197
v 0.517532 0.477362 0.712288
v -0.870553 0.408369 0.128544
v 0.592231 0.497400 0.532293
v -0.795853 0.428407 -0.051453
v 0.567613 0.516918 0.588526
v -0.820471 0.447924 0.004780
v 0.611546 0.476920 0.488785
v -0.776538 0.407926 -0.094961
v 0.591407 0.516918 0.531946
v -0.796678 0.447924 -0.051798
v 0.636445 0.476920 0.429579
v -0.751640 0.407926 -0.154165
v 0.610722 0.496437 0.488438
v -0.777363 0.427445 -0.095306
v 0.654308 0.491440 0.385386
v -0.733776 0.422448 -0.198360
v 0.635620 0.496437 0.429232
v -0.752464 0.427445 -0.154512
v 0.677529 0.491440 0.330170
v -0.710556 0.422448 -0.253574
v 0.653484 0.510958 0.385038
v -0.734601 0.441965 -0.198706
v 0.699873 0.468983 0.279692
v -0.688212 0.399989 -0.304054
v 0.676704 0.510958 0.329823
v -0.711380 0.441965 -0.253922
v 0.719663 0.468983 0.232634
v -0.668422 0.399989 -0.351110
v 0.699048 0.488501 0.279345
v -0.689036 0.419508 -0.304399
v 0.737806 0.487652 0.187284
v -0.650279 0.418660 -0.396461
v 0.718838 0.488501 0.232286
v -0.669246 0.419508 -0.351458
v 0.763113 0.487652 0.127106
v -0.624972 0.418660 -0.456638
v 0.736982 0.507169 0.186937
v -0.651103 0.438177 -0.396809
v 0.781523 0.465088 0.085997
v -0.606561 0.396096 -0.497749
v 0.762289 0.507169 0.126760
v -0.625796 0.438177 -0.456985
v 0.808224 0.465088 0.022503
v -0.579860 0.396096 -0.561241
v 0.780699 0.484607 0.085649
v -0.607386 0.415614 -0.498096
v 0.828609 0.484210 -0.028229
v -0.559476 0.415217 -0.611975
v 0.807400 0.484607 0.022158
v -0.580685 0.415614 -0.561588
v 0.850461 0.484210 -0.080193
v -0.537623 0.415217 -0.663937
v 0.827785 0.503727 -0.028576
v -0.560300 0.434735 -0.612320
v 0.871377 0.469581 -0.128199
v -0.516707 0.400590 -0.711945
v 0.849637 0.503727 -0.080538
v -0.538447 0.434735 -0.664284
v 0.870553 0.489100 -0.128546
v -0.517532 0.420107 -0.712290
vn 0.170499 -0.940386 -0.294287
vn 0.170499 -0.940386 -0.294287
vn 0.170499 -0.940386 -0.294287
vn 0.170499 -0.940386 -0.294287
vn -0.042190 0.998952 -0.017743
vn -0.042190 0.998952 -0.017743
vn -0.042190 0.998952 -0.017743
vn -0.042190 0.998952 -0.017743
vn -0.387655 -0.000016 0.921805
vn -0.387654 -0.000016 0.921805
vn -0.387654 -0.000016 0.921805
vn -0.387654 -0.000016 0.921805
vn 0.042189 -0.998952 0.017743
vn 0.042189 -0.998952 0.017743
vn 0.042189 -0.998952 0.017743
vn 0.042189 -0.998952 0.017743
vn -0.920836 -0.045764 -0.387255
vn -0.920836 -0.045764 -0.387255
vn -0.920836 -0.045764 -0.387255
vn -0.920836 -0.045764 -0.387255
vn 0.920839 0.045750 0.387250
vn 0.920839 0.045750 0.387250
vn 0.920839 0.045750 0.387250
vn 0.920839 0.045750 0.387250
vn 0.042190 -0.998952 0.017742
vn 0.042190 -0.998952 0.017742
vn 0.042190 -0.998952 0.017742
vn 0.042190 -0.998952 0.017742
vn 0.920840 0.045771 0.387246
vn 0.920840 0.045771 0.387246
vn 0.920840 0.045771 0.387246
vn 0.920840 0.045771 0.387246
vn -0.170500 0.940385 0.294287
vn -0.170500 0.940385 0.294287
vn -0.170500 0.940385 0.294287
vn -0.170500 0.940385 0.294287
vn -0.920841 -0.045767 -0.387243
vn -0.920841 -0.045767 -0.387243
vn -0.920841 -0.045767 -0.387243
vn -0.920841 -0.045767 -0.387243
vn -0.114618 -0.917451 0.380982
vn -0.114618 -0.917451 0.380982
vn -0.114618 -0.917450 0.380982
vn -0.114618 -0.917451 0.380982
vn 0.920839 0.045766 0.387248
vn 0.920839 0.045766 0.387248
vn 0.920839 0.045766 0.387248
vn 0.920839 0.045766 0.387248
vn -0.042190 0.998952 -0.017743
vn -0.042190 0.998952 -0.017743
vn -0.042190 0.998952 -0.017743
vn -0.042190 0.998952 -0.017743
vn -0.920839 -0.045770 -0.387248
vn -0.920839 -0.045770 -0.387248
vn -0.920839 -0.045770 -0.387248
vn -0.920839 -0.045770 -0.387248
vn 0.042190 -0.998952 0.017743
vn 0.042190 -0.998952 0.017743
vn 0.042190 -0.998952 0.017743
vn 0.042190 -0.998952 0.017743
vn 0.920838 0.045762 0.387251
vn 0.920838 0.045762 0.387251
vn 0.920838 0.045762 0.387251
vn 0.920838 0.045762 0.387251
vn 0.114618 0.917450 -0.380983
vn 0.114618 0.917450 -0.380983
vn 0.114618 0.917450 -0.380983
vn 0.114618 0.917450 -0.380983
vn -0.920838 -0.045766 -0.387249
vn -0.920839 -0.045766 -0.387249
vn -0.920839 -0.045766 -0.387249
vn -0.920839 -0.045766 -0.387249
vn 0.153435 -0.955506 -0.251923
vn 0.153435 -0.955506 -0.251923
vn 0.153436 -0.955506 -0.251923
vn 0.153435 -0.955506 -0.251923
vn 0.920837 0.045789 0.387249
vn 0.920837 0.045789 0.387249
vn 0.920837 0.045789 0.387249
vn 0.920837 0.045789 0.387249
vn -0.042190 0.998952 -0.017742
vn -0.042190 0.998952 -0.017742
vn -0.042190 0.998952 -0.017742
vn -0.042190 0.998952 -0.017742
vn -0.920836 -0.045768 -0.387254
vn -0.920836 -0.045768 -0.387254
vn -0.920836 -0.045768 -0.387254
vn -0.920836 -0.045768 -0.387254
vn 0.042189 -0.998952 0.017742
vn 0.042189 -0.998952 0.017742
vn 0.042189 -0.998952 0.017742
vn 0.042189 -0.998952 0.017742
vn 0.920834 0.045789 0.387257
vn 0.920834 0.045789 0.387257
vn 0.920834 0.045789 0.387257
vn 0.920834 0.045789 0.387257
vn -0.153437 0.955505 0.251927
vn -0.153437 0.955505 0.251927
vn -0.153437 0.955505 0.251927
vn -0.153437 0.955505 0.251927
vn -0.920840 -0.045768 -0.387247
vn -0.920839 -0.045768 -0.387247
vn -0.920839 -0.045768 -0.387247
vn -0.920839 -0.045768 -0.387247
vn -0.107159 -0.925152 0.364157
vn -0.107159 -0.925152 0.364157
vn -0.107159 -0.925152 0.364157
vn -0.107159 -0.925152 0.364157
vn 0.920838 0.045783 0.387250
vn 0.920838 0.045783 0.387250
vn 0.920837 0.045783 0.387250
vn 0.920838 0.045783 0.387250
vn -0.042190 0.998952 -0.017743
vn -0.042190 0.998952 -0.017743
vn -0.042190 0.998952 -0.017743
vn -0.042190 0.998952 -0.017743
vn -0.920836 -0.045768 -0.387255
vn -0.920836 -0.045768 -0.387255
vn -0.920836 -0.045768 -0.387255
vn -0.920836 -0.045768 -0.387255
vn 0.042190 -0.998952 0.017744
vn 0.042190 -0.998952 0.017744
vn 0.042190 -0.998952 0.017744
vn 0.042190 -0.998952 0.017744
vn 0.920844 0.045809 0.387230
vn 0.920844 0.045809 0.387230
vn 0.920844 0.045809 0.387230
vn 0.920844 0.045809 0.387230
vn 0.107158 0.925153 -0.364155
vn 0.107158 0.925153 -0.364155
vn 0.107158 0.925153 -0.364155
vn 0.107158 0.925153 -0.364155
vn -0.920840 -0.045745 -0.387248
vn -0.920840 -0.045745 -0.387248
vn -0.920840 -0.045745 -0.387248
vn -0.920840 -0.045745 -0.387248
vn 0.177954 -0.932970 -0.312888
vn 0.177954 -0.932970 -0.312888
vn 0.177954 -0.932970 -0.312888
vn 0.177954 -0.932970 -0.312888
vn 0.920835 0.045813 0.387252
vn 0.920835 0.045813 0.387252
vn 0.920835 0.045813 0.387252
vn 0.920835 0.045813 0.387252
vn -0.042190 0.998952 -0.017742
vn -0.042190 0.998952 -0.017742
vn -0.042190 0.998952 -0.017742
vn -0.042190 0.998952 -0.017742
vn -0.920835 -0.045738 -0.387260
vn -0.920835 -0.045738 -0.387260
vn -0.920835 -0.045738 -0.387260
vn -0.920835 -0.045738 -0.387260
vn 0.042190 -0.998952 0.017743
vn 0.042190 -0.998952 0.017743
vn 0.042190 -0.998952 0.017743
vn 0.042190 -0.998952 0.017743
vn 0.920832 0.045786 0.387262
vn 0.920832 0.045786 0.387262
vn 0.920832 0.045786 0.387262
vn 0.920832 0.045786 0.387262
vn -0.177950 0.932974 0.312878
vn -0.177950 0.932975 0.312878
vn -0.177950 0.932975 0.312878
vn -0.177950 0.932974 0.312878
vn -0.920847 -0.045763 -0.387229
vn -0.920847 -0.045763 -0.387229
vn -0.920847 -0.045763 -0.387229
vn -0.920847 -0.045763 -0.387229
vn -0.136090 -0.892926 0.429142
vn -0.136090 -0.892926 0.429142
vn -0.136090 -0.892926 0.429142
vn -0.136090 -0.892926 0.429142
vn 0.920840 0.045750 0.387248
vn 0.920840 0.045750 0.387248
vn 0.920840 0.045750 0.387248
vn 0.920840 0.045750 0.387248
vn -0.042190 0.998952 -0.017743
vn -0.042190 0.998952 -0.017743
vn -0.042190 0.998952 -0.017743
vn -0.042190 0.998952 -0.017743
vn -0.920837 -0.045763 -0.387253
vn -0.920837 -0.045763 -0.387253
vn -0.920837 -0.045763 -0.387253
vn -0.920837 -0.045763 -0.387253
vn 0.042190 -0.998952 0.017743
vn 0.042190 -0.998952 0.017743
vn 0.042190 -0.998952 0.017743
vn 0.042190 -0.998952 0.017743
vn 0.920834 0.045740 0.387263
vn 0.920834 0.045740 0.387263
vn 0.920834 0.045740 0.387263
vn 0.920834 0.045740 0.387263
vn 0.136084 0.892933 -0.429128
vn 0.136084 0.892933 -0.429128
vn 0.136084 0.892933 -0.429128
vn 0.136084 0.892933 -0.429128
vn -0.920839 -0.045789 -0.387244
vn -0.920839 -0.045789 -0.387244
vn -0.920840 -0.045789 -0.387244
vn -0.920840 -0.045789 -0.387244
vn 0.167926 -0.942829 -0.287878
vn 0.167926 -0.942829 -0.287878
vn 0.167926 -0.942829 -0.287878
vn 0.167926 -0.942829 -0.287878
vn 0.920841 0.045743 0.387247
vn 0.920841 0.045743 0.387247
vn 0.920841 0.045743 0.387247
vn 0.920841 0.045743 0.387247
vn -0.042190 0.998952 -0.017742
vn -0.042190 0.998952 -0.017742
vn -0.042190 0.998952 -0.017742
vn -0.042190 0.998952 -0.017742
vn -0.920835 -0.045813 -0.387251
vn -0.920836 -0.045813 -0.387251
vn -0.920835 -0.045813 -0.387251
vn -0.920836 -0.045813 -0.387251
vn 0.042190 -0.998952 0.017743
vn 0.042190 -0.998952 0.017743
vn 0.042190 -0.998952 0.017743
vn 0.042190 -0.998952 0.017743
vn 0.920841 0.045746 0.387246
vn 0.920841 0.045746 0.387246
vn 0.920841 0.045746 0.387246
vn 0.920841 0.045746 0.387246
vn -0.167925 0.942830 0.287876
vn -0.167925 0.942830 0.287876
vn -0.167925 0.942830 0.287876
vn -0.167925 0.942830 0.287876
vn -0.920840 -0.045769 -0.387246
vn -0.920840 -0.045769 -0.387246
vn -0.920840 -0.045769 -0.387246
vn -0.920840 -0.045769 -0.387246
vn -0.063772 -0.962042 0.265345
vn -0.063772 -0.962042 0.265345
vn -0.063772 -0.962042 0.265345
vn -0.063772 -0.962042 0.265345
vn 0.920842 0.045744 0.387243
vn 0.920842 0.045744 0.387243
vn 0.920842 0.045744 0.387243
vn 0.920842 0.045744 0.387243
vn -0.042190 0.998952 -0.017743
vn -0.042190 0.998952 -0.017743
vn -0.042190 0.998952 -0.017743
vn -0.042190 0.998952 -0.017743
vn -0.920836 -0.045742 -0.387258
vn -0.920836 -0.045742 -0.387258
vn -0.920836 -0.045742 -0.387258
vn -0.920836 -0.045742 -0.387258
vn 0.387654 0.000026 -0.921805
vn 0.387654 0.000026 -0.921805
vn 0.387654 0.000026 -0.921805
vn 0.387654 0.000026 -0.921805
vn 0.920836 0.045744 0.387257
vn 0.920836 0.045744 0.387258
vn 0.920836 0.045744 0.387257
vn 0.920836 0.045744 0.387257
vn 0.063775 0.962040 -0.265353
vn 0.063775 0.962040 -0.265353
vn 0.063775 0.962040 -0.265353
vn 0.063775 0.962040 -0.265353
vn -0.920841 -0.045769 -0.387244
vn -0.920841 -0.045769 -0.387244
vn -0.920841 -0.045769 -0.387244
vn -0.920841 -0.045769 -0.387244
s off
g teja Low_Poly_Models:Mesh
usemtl lambert2SG
f 1//1 4//2 3//3 2//4
f 5//5 8//6 7//7 6//8
f 8//9 10//10 9//11 7//12
f 10//13 1//14 2//15 9//16
f 5//17 1//18 10//19 8//20
f 7//21 9//22 2//23 6//24
f 4//25 12//26 11//27 3//28
f 2//29 3//30 13//31 6//32
f 6//33 13//34 14//35 5//36
f 5//37 14//38 4//39 1//40
f 12//41 16//42 15//43 11//44
f 3//45 11//46 17//47 13//48
f 13//49 17//50 18//51 14//52
f 14//53 18//54 12//55 4//56
f 16//57 20//58 19//59 15//60
f 11//61 15//62 21//63 17//64
f 17//65 21//66 22//67 18//68
f 18//69 22//70 16//71 12//72
f 20//73 24//74 23//75 19//76
f 15//77 19//78 25//79 21//80
f 21//81 25//82 26//83 22//84
f 22//85 26//86 20//87 16//88
f 24//89 28//90 27//91 23//92
f 19//93 23//94 29//95 25//96
f 25//97 29//98 30//99 26//100
f 26//101 30//102 24//103 20//104
f 28//105 32//106 31//107 27//108
f 23//109 27//110 33//111 29//112
f 29//113 33//114 34//115 30//116
f 30//117 34//118 28//119 24//120
f 32//121 36//122 35//123 31//124
f 27//125 31//126 37//127 33//128
f 33//129 37//130 38//131 34//132
f 34//133 38//134 32//135 28//136
f 36//137 40//138 39//139 35//140
f 31//141 35//142 41//143 37//144
f 37//145 41//146 42//147 38//148
f 38//149 42//150 36//151 32//152
f 40//153 44//154 43//155 39//156
f 35//157 39//158 45//159 41//160
f 41//161 45//162 46//163 42//164
f 42//165 46//166 40//167 36//168
f 44//169 48//170 47//171 43//172
f 39//173 43//174 49//175 45//176
f 45//177 49//178 50//179 46//180
f 46//181 50//182 44//183 40//184
f 48//185 52//186 51//187 47//188
f 43//189 47//190 53//191 49//192
f 49//193 53//194 54//195 50//196
f 50//197 54//198 48//199 44//200
f 52//201 56//202 55//203 51//204
f 47//205 51//206 57//207 53//208
f 53//209 57//210 58//211 54//212
f 54//213 58//214 52//215 48//216
f 56//217 60//218 59//219 55//220
f 51//221 55//222 61//223 57//224
f 57//225 61//226 62//227 58//228
f 58//229 62//230 56//231 52//232
f 60//233 64//234 63//235 59//236
f 55//237 59//238 65//239 61//240
f 61//241 65//242 66//243 62//244
f 62//245 66//246 60//247 56//248
f 64//249 68//250 67//251 63//252
f 59//253 63//254 67//255 65//256
f 65//257 67//258 68//259 66//260
f 66//261 68//262 64//263 60//264
