# This file uses centimeters as units for non-parametric coordinates.

mtllib 3_rocks_single.mtl
g default
v -9.006299 0.059429 -3.648346
v -8.624727 0.614289 -4.262328
v -8.849231 -0.439152 -2.917291
v -9.520507 0.507450 -3.519848
v -9.373663 -0.113406 -2.888804
v -9.081128 -0.336997 -2.074331
v -9.686683 0.429270 -2.849904
v -9.570289 0.602825 -2.258944
v -9.362730 1.276852 -3.559528
v -9.518497 1.221412 -2.955108
v -8.888468 0.304179 -1.584968
v -9.185140 1.229999 -2.282959
v -8.746727 1.859428 -3.285022
v -8.184791 1.836466 -3.125308
v -8.236720 1.333436 -2.039439
v -8.357864 1.345018 -4.534202
v -8.012807 0.974062 -1.669094
v -7.611094 1.496885 -2.882385
v -7.747770 0.895619 -1.655869
v -7.686972 1.222179 -3.911932
v -7.358326 0.585182 -2.177910
v -7.337519 0.530884 -3.421084
v -7.497694 0.081708 -3.195750
v -7.932191 0.866857 -4.335410
v -7.968602 -0.385441 -2.181651
v -8.262398 -0.206963 -3.441886
vn -0.065849 -0.719615 -0.691244
vn -0.065849 -0.719615 -0.691244
vn -0.065849 -0.719615 -0.691244
vn -0.149282 -0.831536 -0.535035
vn -0.149282 -0.831536 -0.535035
vn -0.149282 -0.831536 -0.535035
vn -0.548165 -0.422045 -0.722075
vn -0.548165 -0.422045 -0.722075
vn -0.548165 -0.422045 -0.722075
vn -0.633184 -0.055980 -0.771974
vn -0.633184 -0.055980 -0.771974
vn -0.633184 -0.055980 -0.771974
vn -0.843604 -0.467683 -0.263829
vn -0.843604 -0.467683 -0.263829
vn -0.843604 -0.467683 -0.263828
vn -0.871420 -0.396943 0.288209
vn -0.871419 -0.396943 0.288209
vn -0.871419 -0.396943 0.288209
vn -0.955748 0.184159 -0.229416
vn -0.955748 0.184159 -0.229416
vn -0.955748 0.184158 -0.229416
vn -0.960196 0.174945 -0.217756
vn -0.960196 0.174945 -0.217756
vn -0.960196 0.174945 -0.217756
vn -0.966978 0.221946 0.125272
vn -0.966978 0.221946 0.125272
vn -0.966978 0.221946 0.125272
vn -0.734017 -0.258697 0.627930
vn -0.734017 -0.258697 0.627930
vn -0.734017 -0.258697 0.627930
vn -0.781242 0.494357 0.381147
vn -0.781242 0.494357 0.381147
vn -0.781242 0.494356 0.381147
vn -0.494453 0.738684 -0.458108
vn -0.494453 0.738684 -0.458108
vn -0.494453 0.738684 -0.458108
vn -0.210637 0.866672 0.452229
vn -0.210637 0.866672 0.452229
vn -0.210637 0.866672 0.452229
vn -0.009094 0.136293 0.990627
vn -0.009094 0.136293 0.990627
vn -0.009094 0.136293 0.990627
vn 0.134956 0.930295 -0.341084
vn 0.134956 0.930295 -0.341084
vn 0.134956 0.930295 -0.341084
vn 0.418557 0.816263 0.398151
vn 0.418557 0.816263 0.398152
vn 0.418557 0.816263 0.398152
vn 0.580492 0.744025 -0.330840
vn 0.580492 0.744025 -0.330840
vn 0.580492 0.744025 -0.330840
vn 0.264310 -0.404833 0.875357
vn 0.264310 -0.404833 0.875357
vn 0.264310 -0.404833 0.875357
vn 0.816315 0.477475 0.325035
vn 0.816315 0.477475 0.325035
vn 0.816315 0.477475 0.325035
vn 0.404712 0.875665 -0.263475
vn 0.404712 0.875665 -0.263474
vn 0.404712 0.875665 -0.263475
vn 0.613058 -0.388109 0.688136
vn 0.613058 -0.388110 0.688136
vn 0.613058 -0.388110 0.688136
vn 0.946136 -0.322385 0.029916
vn 0.946136 -0.322385 0.029916
vn 0.946136 -0.322385 0.029916
vn 0.049107 -0.615259 0.786794
vn 0.049107 -0.615259 0.786794
vn 0.049107 -0.615259 0.786794
vn 0.443898 -0.649866 -0.616951
vn 0.443898 -0.649866 -0.616951
vn 0.443898 -0.649866 -0.616951
vn 0.032458 -0.358913 -0.932807
vn 0.032458 -0.358913 -0.932807
vn 0.032458 -0.358913 -0.932807
vn 0.163430 -0.660235 -0.733062
vn 0.163430 -0.660235 -0.733062
vn 0.163430 -0.660235 -0.733062
vn -0.032501 -0.993241 0.111426
vn -0.032501 -0.993241 0.111426
vn -0.032501 -0.993241 0.111426
vn -0.528832 -0.847649 -0.042758
vn -0.528832 -0.847649 -0.042758
vn -0.528832 -0.847649 -0.042758
vn -0.848804 -0.501582 0.167171
vn -0.848804 -0.501582 0.167171
vn -0.848805 -0.501582 0.167171
vn -0.696010 0.106100 -0.710150
vn -0.696010 0.106100 -0.710150
vn -0.696010 0.106100 -0.710150
vn -0.258800 0.610307 0.748698
vn -0.258800 0.610307 0.748698
vn -0.258800 0.610307 0.748698
vn -0.563754 0.374394 0.736213
vn -0.563754 0.374394 0.736213
vn -0.563754 0.374394 0.736213
vn -0.659298 0.744989 -0.101576
vn -0.659298 0.744989 -0.101576
vn -0.659298 0.744989 -0.101576
vn -0.546426 0.795854 0.260836
vn -0.546426 0.795854 0.260836
vn -0.546426 0.795854 0.260836
vn 0.922175 0.351344 -0.161711
vn 0.922175 0.351344 -0.161711
vn 0.922175 0.351344 -0.161711
vn -0.310458 0.506821 0.804207
vn -0.310458 0.506821 0.804207
vn -0.310458 0.506820 0.804207
vn -0.081153 0.905848 0.415756
vn -0.081153 0.905848 0.415756
vn -0.081153 0.905848 0.415756
vn 0.194000 0.760044 0.620239
vn 0.194000 0.760044 0.620239
vn 0.194000 0.760044 0.620239
vn 0.308347 0.840130 0.446210
vn 0.308347 0.840130 0.446210
vn 0.308347 0.840130 0.446210
vn 0.962778 0.270259 0.004310
vn 0.962778 0.270259 0.004310
vn 0.962778 0.270259 0.004310
vn -0.578959 -0.688547 -0.436702
vn -0.578959 -0.688547 -0.436702
vn -0.578959 -0.688547 -0.436702
vn -0.578959 -0.688547 -0.436702
vn 0.837241 -0.526975 0.146029
vn 0.837241 -0.526975 0.146029
vn 0.837241 -0.526975 0.146029
vn 0.845541 0.049993 -0.531565
vn 0.845541 0.049993 -0.531565
vn 0.845541 0.049993 -0.531565
vn 0.617952 -0.517352 -0.592015
vn 0.617952 -0.517352 -0.592015
vn 0.617952 -0.517352 -0.592015
vn 0.405742 -0.887062 -0.220218
vn 0.405742 -0.887062 -0.220218
vn 0.405742 -0.887061 -0.220218
vn 0.213560 -0.959133 -0.185622
vn 0.213560 -0.959133 -0.185622
vn 0.213560 -0.959133 -0.185622
vn 0.674459 0.324766 -0.663048
vn 0.674459 0.324766 -0.663048
vn 0.674459 0.324766 -0.663048
s off
g polySurface51 Low_Poly_Models:Mesh
usemtl blinn1SG
f 26//1 1//2 2//3
f 26//4 3//5 1//6
f 1//7 4//8 2//9
f 2//10 4//11 16//12
f 4//13 5//14 7//15
f 7//16 6//17 8//18
f 9//19 4//20 10//21
f 4//22 7//23 10//24
f 10//25 7//26 8//27
f 6//28 11//29 8//30
f 10//31 8//32 12//33
f 16//34 9//35 13//36
f 13//37 12//38 15//39
f 11//40 19//41 17//42
f 13//43 14//44 16//45
f 15//46 19//47 14//48
f 14//49 18//50 16//51
f 19//52 11//53 25//54
f 18//55 19//56 21//57
f 16//58 18//59 20//60
f 19//61 25//62 21//63
f 22//64 21//65 23//66
f 11//67 6//68 25//69
f 24//70 23//71 26//72
f 24//73 2//74 16//75
f 24//76 26//77 2//78
f 25//79 6//80 3//81
f 3//82 6//83 5//84
f 5//85 6//86 7//87
f 4//88 9//89 16//90
f 17//91 15//92 12//93
f 11//94 12//95 8//96
f 9//97 10//98 13//99
f 10//100 12//101 13//102
f 22//103 20//104 18//105
f 11//106 17//107 12//108
f 13//109 15//110 14//111
f 15//112 17//113 19//114
f 14//115 19//116 18//117
f 18//118 21//119 22//120
f 1//121 3//122 5//123 4//124
f 21//125 25//126 23//127
f 20//128 22//129 24//130
f 22//131 23//132 24//133
f 25//134 26//135 23//136
f 25//137 3//138 26//139
f 24//140 16//141 20//142
g default
v -6.603782 -0.402521 -5.837274
v -7.440516 0.040781 -4.999912
v -6.393228 0.584321 -6.765268
v -6.796742 1.152910 -6.092239
v -7.355506 -0.250675 -5.319095
v -7.277519 -0.373701 -6.107007
v -5.954605 0.016368 -6.003645
v -6.819107 0.023147 -4.864363
v -6.100793 0.072680 -5.244721
v -7.900412 0.040783 -5.632905
v -7.433090 0.047182 -6.709333
v -7.833726 0.021005 -6.272401
v -6.181482 0.073288 -6.653834
v -6.688672 0.045857 -6.873451
v -6.406126 0.630447 -5.142869
v -7.457438 0.783869 -5.166631
v -7.788906 0.641432 -6.119713
v -6.047840 0.637918 -6.237568
v -6.635857 1.069282 -5.492757
v -7.355688 1.181332 -5.545109
v -7.315144 0.847997 -6.485190
vn 0.564573 -0.807961 0.168692
vn 0.564573 -0.807961 0.168692
vn 0.564573 -0.807961 0.168692
vn -0.099696 -0.984558 0.143894
vn -0.099696 -0.984558 0.143894
vn -0.099696 -0.984558 0.143894
vn 0.027700 0.771692 -0.635393
vn 0.027700 0.771692 -0.635393
vn 0.027700 0.771692 -0.635393
vn 0.561577 0.826667 -0.035399
vn 0.561577 0.826667 -0.035399
vn 0.561577 0.826667 -0.035399
vn 0.469910 0.792816 -0.388108
vn 0.469910 0.792816 -0.388108
vn 0.469910 0.792816 -0.388108
vn -0.278796 0.901287 -0.331595
vn -0.278796 0.901287 -0.331595
vn -0.278796 0.901287 -0.331595
vn -0.564918 0.769724 -0.297309
vn -0.564918 0.769724 -0.297309
vn -0.564918 0.769724 -0.297309
vn -0.864634 0.444418 0.234309
vn -0.864634 0.444418 0.234309
vn -0.864634 0.444418 0.234309
vn 0.146099 0.984394 0.098099
vn 0.146099 0.984394 0.098099
vn 0.146099 0.984394 0.098099
vn 0.053000 0.681498 0.729898
vn 0.053000 0.681498 0.729898
vn 0.053000 0.681498 0.729898
vn 0.077101 0.645909 0.759511
vn 0.077101 0.645909 0.759511
vn 0.077101 0.645909 0.759511
vn 0.759684 0.599187 0.252695
vn 0.759684 0.599187 0.252695
vn 0.759684 0.599187 0.252695
vn 0.944502 0.018200 -0.328001
vn 0.944502 0.018200 -0.328001
vn 0.944502 0.018200 -0.328001
vn 0.807088 0.214497 -0.550092
vn 0.807088 0.214497 -0.550092
vn 0.807088 0.214497 -0.550092
vn -0.198899 0.296799 -0.933997
vn -0.198899 0.296799 -0.933997
vn -0.198899 0.296799 -0.933997
vn -0.205399 0.291699 -0.934196
vn -0.205399 0.291699 -0.934196
vn -0.205399 0.291699 -0.934196
vn -0.660677 0.290990 -0.691976
vn -0.660677 0.290990 -0.691976
vn -0.660677 0.290990 -0.691976
vn -0.989542 0.097604 -0.106205
vn -0.989542 0.097604 -0.106205
vn -0.989542 0.097604 -0.106205
vn -0.892495 0.372198 0.254798
vn -0.892495 0.372198 0.254798
vn -0.892495 0.372198 0.254798
vn -0.202692 0.209992 0.956462
vn -0.202692 0.209992 0.956462
vn -0.202692 0.209992 0.956462
vn 0.037001 0.395712 0.917629
vn 0.037001 0.395712 0.917629
vn 0.037001 0.395712 0.917629
vn 0.861793 0.419697 0.284898
vn 0.861793 0.419697 0.284898
vn 0.861793 0.419697 0.284898
vn 0.398710 -0.034601 -0.916424
vn 0.398710 -0.034601 -0.916424
vn 0.398710 -0.034601 -0.916424
vn -0.726416 0.213305 -0.653315
vn -0.726416 0.213305 -0.653315
vn -0.726416 0.213305 -0.653315
vn -0.803895 0.112699 0.583996
vn -0.803895 0.112699 0.583996
vn -0.803895 0.112699 0.583996
vn -0.607418 -0.660520 0.441313
vn -0.607418 -0.660520 0.441313
vn -0.607418 -0.660520 0.441313
vn 0.461079 0.091196 0.882660
vn 0.461079 0.091196 0.882660
vn 0.461079 0.091196 0.882660
vn 0.963116 0.208503 0.170103
vn 0.963116 0.208503 0.170103
vn 0.963116 0.208503 0.170103
vn 0.222304 -0.888014 -0.402507
vn 0.222304 -0.888014 -0.402507
vn 0.222304 -0.888014 -0.402507
vn 0.122395 -0.907164 -0.402584
vn 0.122395 -0.907164 -0.402584
vn 0.122395 -0.907164 -0.402584
vn -0.122101 -0.828110 -0.547106
vn -0.122101 -0.828110 -0.547106
vn -0.122101 -0.828110 -0.547106
vn -0.428794 -0.788789 -0.440394
vn -0.428794 -0.788789 -0.440394
vn -0.428794 -0.788789 -0.440394
vn -0.571609 -0.819813 -0.034201
vn -0.571609 -0.819813 -0.034201
vn -0.571609 -0.819813 -0.034201
vn -0.507102 -0.857803 0.083800
vn -0.507102 -0.857803 0.083800
vn -0.507102 -0.857803 0.083800
vn 0.481590 -0.842382 -0.241795
vn 0.481590 -0.842382 -0.241795
vn 0.481590 -0.842382 -0.241795
vn -0.161300 -0.749801 0.641701
vn -0.161300 -0.749801 0.641701
vn -0.161300 -0.749801 0.641701
vn 0.105995 -0.902158 0.418181
vn 0.105995 -0.902158 0.418181
vn 0.105995 -0.902158 0.418181
vn 0.289983 -0.851550 0.436775
vn 0.289983 -0.851550 0.436775
vn 0.289983 -0.851550 0.436775
s off
g Low_Poly_Models:Mesh polySurface47
usemtl lambert2SG
f 35//143 27//144 33//145
f 27//146 31//147 32//148
f 29//149 47//150 30//151
f 45//152 44//153 30//154
f 44//155 29//156 30//157
f 47//158 46//159 30//160
f 47//161 43//162 46//163
f 43//164 42//165 46//166
f 46//167 45//168 30//169
f 46//170 42//171 45//172
f 42//173 41//174 45//175
f 41//176 44//177 45//178
f 33//179 39//180 44//181
f 39//182 29//183 44//184
f 40//185 47//186 29//187
f 40//188 37//189 47//190
f 37//191 43//192 47//193
f 38//194 36//195 43//196
f 36//197 42//198 43//199
f 28//200 34//201 42//202
f 34//203 41//204 42//205
f 35//206 44//207 41//208
f 39//209 40//210 29//211
f 37//212 38//213 43//214
f 36//215 28//216 42//217
f 36//218 31//219 28//220
f 34//221 35//222 41//223
f 35//224 33//225 44//226
f 27//227 40//228 39//229
f 27//230 32//231 40//232
f 32//233 37//234 40//235
f 32//236 38//237 37//238
f 32//239 36//240 38//241
f 32//242 31//243 36//244
f 33//245 27//246 39//247
f 31//248 34//249 28//250
f 31//251 27//252 34//253
f 27//254 35//255 34//256
g default
v -10.892971 2.318322 -7.372934
v -10.206461 2.763792 -8.500943
v -10.472010 3.137975 -8.058027
v -10.580118 2.049335 -7.945375
v -10.486728 2.394488 -7.249973
v -9.917036 2.387302 -7.667514
v -11.198325 2.406094 -7.755743
v -11.070036 2.392375 -8.338025
v -10.184926 2.436164 -8.561953
v -9.979164 2.799064 -8.153667
v -10.268003 2.975024 -7.529247
v -10.887322 3.119213 -7.588328
v -11.033976 2.918461 -8.202904
vn -0.108695 0.726265 -0.678767
vn -0.108695 0.726265 -0.678767
vn -0.108695 0.726265 -0.678767
vn 0.570589 0.820584 0.032699
vn 0.570589 0.820584 0.032699
vn 0.570589 0.820584 0.032699
vn 0.469910 0.792816 -0.388108
vn 0.469910 0.792816 -0.388108
vn 0.469910 0.792816 -0.388108
vn -0.302006 0.925119 -0.230105
vn -0.302006 0.925119 -0.230105
vn -0.302006 0.925119 -0.230105
vn 0.201704 0.955218 0.216504
vn 0.201704 0.955218 0.216504
vn 0.201704 0.955218 0.216504
vn 0.934995 -0.202599 -0.291098
vn 0.934995 -0.202599 -0.291098
vn 0.934995 -0.202599 -0.291098
vn 0.819005 0.156601 -0.552003
vn 0.819005 0.156601 -0.552003
vn 0.819005 0.156601 -0.552003
vn -0.309104 0.154402 -0.938411
vn -0.309104 0.154402 -0.938411
vn -0.309104 0.154402 -0.938411
vn -0.249002 0.256902 -0.933809
vn -0.249002 0.256902 -0.933809
vn -0.249002 0.256902 -0.933809
vn -0.968688 0.121898 -0.216297
vn -0.968688 0.121898 -0.216297
vn -0.968688 0.121898 -0.216297
vn -0.920462 0.378884 0.095896
vn -0.920462 0.378884 0.095896
vn -0.920462 0.378884 0.095896
vn -0.322897 0.247898 0.913392
vn -0.322897 0.247898 0.913392
vn -0.322897 0.247898 0.913392
vn 0.013800 0.429202 0.903103
vn 0.013800 0.429202 0.903103
vn 0.013800 0.429202 0.903103
vn 0.853459 0.446379 0.268987
vn 0.853459 0.446379 0.268987
vn 0.853459 0.446379 0.268987
vn -0.749240 0.176909 0.638234
vn -0.749240 0.176909 0.638234
vn -0.749240 0.176909 0.638234
vn 0.584695 0.162099 0.794893
vn 0.584695 0.162099 0.794893
vn 0.584695 0.162099 0.794893
vn -0.105695 -0.810464 -0.576174
vn -0.105695 -0.810464 -0.576174
vn -0.105695 -0.810464 -0.576174
vn -0.519166 -0.849445 -0.094394
vn -0.519166 -0.849445 -0.094394
vn -0.519166 -0.849445 -0.094394
vn -0.455293 -0.875387 0.162498
vn -0.455293 -0.875387 0.162498
vn -0.455293 -0.875387 0.162498
vn 0.509801 -0.837102 -0.198400
vn 0.509801 -0.837102 -0.198400
vn 0.509801 -0.837102 -0.198400
vn 0.034801 -0.897023 0.440611
vn 0.034801 -0.897023 0.440611
vn 0.034801 -0.897023 0.440611
vn 0.279605 -0.874416 0.396507
vn 0.279605 -0.874416 0.396507
vn 0.279605 -0.874416 0.396507
s off
g Low_Poly_Models:Mesh rock_single
usemtl lambert2SG
f 49//257 60//258 50//259
f 58//260 57//261 50//262
f 57//263 49//264 50//265
f 60//266 59//267 50//268
f 59//269 58//270 50//271
f 53//272 56//273 57//274
f 56//275 49//276 57//277
f 56//278 60//279 49//280
f 56//281 55//282 60//283
f 55//284 54//285 60//286
f 54//287 59//288 60//289
f 48//290 52//291 59//292
f 52//293 58//294 59//295
f 53//296 57//297 58//298
f 54//299 48//300 59//301
f 52//302 53//303 58//304
f 51//305 55//306 56//307
f 51//308 54//309 55//310
f 51//311 48//312 54//313
f 53//314 51//315 56//316
f 48//317 51//318 52//319
f 51//320 53//321 52//322
