# This file uses centimeters as units for non-parametric coordinates.

mtllib big_rock.mtl
g default
v 0.355571 -0.785636 -8.803984
v 1.076186 -0.532602 -8.280431
v 0.080325 -0.532604 -7.956850
v 1.581562 0.150928 -7.913258
v 1.796804 0.017899 -8.803984
v -0.535164 -0.532598 -8.803984
v 0.080325 -0.532604 -9.651115
v 1.076186 -0.532602 -9.327534
v 1.966929 0.908644 -8.280428
v -0.112709 0.150928 -7.362746
v 0.800942 0.017897 -7.433290
v 0.355571 0.908644 -7.109703
v -1.159838 0.150934 -8.803984
v -0.810414 0.017899 -7.956849
v -1.255789 0.908644 -8.280428
v -0.112709 0.150928 -10.245221
v -0.810414 0.017899 -9.651118
v -0.640303 0.908644 -10.174683
v 1.581562 0.150928 -9.694709
v 0.800942 0.017897 -10.174674
v 1.351444 0.908644 -10.174683
v 1.351444 0.908644 -7.433281
v -0.640303 0.908644 -7.433281
v -1.255789 0.908644 -9.327536
v 0.355571 0.908644 -10.498263
v 1.966929 0.908644 -9.327536
v 0.823848 1.666358 -7.362746
v 1.521554 1.799386 -7.956849
v 0.630815 2.349890 -7.956850
v -0.870422 1.666358 -7.913257
v -0.089802 1.799389 -7.433290
v -0.365045 2.349890 -8.280430
v -0.870422 1.666358 -9.694709
v -1.085664 1.799386 -8.803983
v -0.365045 2.349890 -9.327533
v 0.823848 1.666358 -10.245221
v -0.089802 1.799389 -10.174674
v 0.630815 2.349890 -9.651115
v 1.870979 1.666352 -8.803983
v 1.521554 1.799386 -9.651118
v 1.246303 2.349886 -8.803983
v 0.355571 2.602922 -8.803983
vn 0.102402 -0.943516 0.315105
vn 0.102402 -0.943516 0.315105
vn 0.102402 -0.943516 0.315105
vn 0.700217 -0.661716 0.268007
vn 0.700217 -0.661716 0.268007
vn 0.700217 -0.661716 0.268007
vn -0.268010 -0.943536 0.194707
vn -0.268010 -0.943536 0.194707
vn -0.268010 -0.943536 0.194707
vn -0.268010 -0.943536 -0.194707
vn -0.268010 -0.943536 -0.194707
vn -0.268010 -0.943536 -0.194707
vn 0.102402 -0.943516 -0.315105
vn 0.102402 -0.943516 -0.315105
vn 0.102402 -0.943516 -0.315105
vn 0.904994 -0.330398 0.267998
vn 0.904994 -0.330398 0.267998
vn 0.904994 -0.330398 0.267998
vn 0.024700 -0.330406 0.943516
vn 0.024700 -0.330406 0.943516
vn 0.024700 -0.330406 0.943516
vn -0.889692 -0.330397 0.315097
vn -0.889692 -0.330397 0.315097
vn -0.889692 -0.330397 0.315097
vn -0.574591 -0.330395 -0.748788
vn -0.574591 -0.330395 -0.748788
vn -0.574591 -0.330395 -0.748788
vn 0.534576 -0.330385 -0.777865
vn 0.534576 -0.330385 -0.777865
vn 0.534576 -0.330385 -0.777865
vn 0.802621 -0.125603 0.583115
vn 0.802621 -0.125603 0.583115
vn 0.802621 -0.125603 0.583115
vn -0.306604 -0.125602 0.943514
vn -0.306604 -0.125602 0.943514
vn -0.306604 -0.125602 0.943514
vn -0.992081 -0.125598 0.000000
vn -0.992081 -0.125598 0.000000
vn -0.992081 -0.125598 0.000000
vn -0.306604 -0.125602 -0.943514
vn -0.306604 -0.125602 -0.943514
vn -0.306604 -0.125602 -0.943514
vn 0.802621 -0.125603 -0.583115
vn 0.802621 -0.125603 -0.583115
vn 0.802621 -0.125603 -0.583115
vn 0.408914 0.661722 0.628421
vn 0.408914 0.661722 0.628421
vn 0.408914 0.661722 0.628421
vn -0.471306 0.661708 0.583107
vn -0.471306 0.661708 0.583107
vn -0.471306 0.661708 0.583107
vn -0.700217 0.661716 -0.268007
vn -0.700217 0.661716 -0.268007
vn -0.700217 0.661716 -0.268007
vn 0.038499 0.661690 -0.748789
vn 0.038499 0.661690 -0.748789
vn 0.038499 0.661690 -0.748789
vn 0.724025 0.661723 -0.194707
vn 0.724025 0.661723 -0.194707
vn 0.724025 0.661723 -0.194707
vn 0.268010 0.943536 -0.194707
vn 0.268010 0.943536 -0.194707
vn 0.268010 0.943536 -0.194707
vn 0.491092 0.794687 -0.356794
vn 0.491092 0.794687 -0.356794
vn 0.491092 0.794687 -0.356794
vn 0.408914 0.661722 -0.628421
vn 0.408914 0.661722 -0.628421
vn 0.408914 0.661722 -0.628421
vn -0.102402 0.943516 -0.315105
vn -0.102402 0.943516 -0.315105
vn -0.102402 0.943516 -0.315105
vn -0.187598 0.794693 -0.577295
vn -0.187598 0.794693 -0.577295
vn -0.187598 0.794693 -0.577295
vn -0.471306 0.661708 -0.583107
vn -0.471306 0.661708 -0.583107
vn -0.471306 0.661708 -0.583107
vn -0.331308 0.943523 0.000000
vn -0.331308 0.943523 0.000000
vn -0.331308 0.943523 0.000000
vn -0.607064 0.794653 0.000000
vn -0.607064 0.794653 0.000000
vn -0.607064 0.794653 0.000000
vn -0.700217 0.661716 0.268007
vn -0.700217 0.661716 0.268007
vn -0.700217 0.661716 0.268007
vn -0.102402 0.943516 0.315105
vn -0.102402 0.943516 0.315105
vn -0.102402 0.943516 0.315105
vn -0.187598 0.794693 0.577295
vn -0.187598 0.794693 0.577295
vn -0.187598 0.794693 0.577295
vn 0.038499 0.661690 0.748789
vn 0.038499 0.661690 0.748789
vn 0.038499 0.661690 0.748789
vn 0.268010 0.943536 0.194707
vn 0.268010 0.943536 0.194707
vn 0.268010 0.943536 0.194707
vn 0.491092 0.794687 0.356794
vn 0.491092 0.794687 0.356794
vn 0.491092 0.794687 0.356794
vn 0.724025 0.661723 0.194707
vn 0.724025 0.661723 0.194707
vn 0.724025 0.661723 0.194707
vn 0.889692 0.330397 -0.315097
vn 0.889692 0.330397 -0.315097
vn 0.889692 0.330397 -0.315097
vn 0.794693 0.187598 -0.577295
vn 0.794693 0.187598 -0.577295
vn 0.794693 0.187598 -0.577295
vn 0.574591 0.330395 -0.748788
vn 0.574591 0.330395 -0.748788
vn 0.574591 0.330395 -0.748788
vn -0.024700 0.330406 -0.943516
vn -0.024700 0.330406 -0.943516
vn -0.024700 0.330406 -0.943516
vn -0.303495 0.187597 -0.934183
vn -0.303495 0.187597 -0.934183
vn -0.303495 0.187597 -0.934183
vn -0.534576 0.330385 -0.777865
vn -0.534576 0.330385 -0.777865
vn -0.534576 0.330385 -0.777865
vn -0.904994 0.330398 -0.267998
vn -0.904994 0.330398 -0.267998
vn -0.904994 0.330398 -0.267998
vn -0.982244 0.187608 0.000000
vn -0.982244 0.187608 0.000000
vn -0.982244 0.187608 0.000000
vn -0.904994 0.330398 0.267998
vn -0.904994 0.330398 0.267998
vn -0.904994 0.330398 0.267998
vn -0.534576 0.330385 0.777865
vn -0.534576 0.330385 0.777865
vn -0.534576 0.330385 0.777865
vn -0.303495 0.187597 0.934183
vn -0.303495 0.187597 0.934183
vn -0.303495 0.187597 0.934183
vn -0.024700 0.330406 0.943516
vn -0.024700 0.330406 0.943516
vn -0.024700 0.330406 0.943516
vn 0.574591 0.330395 0.748788
vn 0.574591 0.330395 0.748788
vn 0.574591 0.330395 0.748788
vn 0.794693 0.187598 0.577295
vn 0.794693 0.187598 0.577295
vn 0.794693 0.187598 0.577295
vn 0.889692 0.330397 0.315097
vn 0.889692 0.330397 0.315097
vn 0.889692 0.330397 0.315097
vn 0.306604 0.125602 -0.943514
vn 0.306604 0.125602 -0.943514
vn 0.306604 0.125602 -0.943514
vn 0.303495 -0.187597 -0.934183
vn 0.303495 -0.187597 -0.934183
vn 0.303495 -0.187597 -0.934183
vn 0.024700 -0.330406 -0.943516
vn 0.024700 -0.330406 -0.943516
vn 0.024700 -0.330406 -0.943516
vn -0.802621 0.125603 -0.583115
vn -0.802621 0.125603 -0.583115
vn -0.802621 0.125603 -0.583115
vn -0.794693 -0.187598 -0.577295
vn -0.794693 -0.187598 -0.577295
vn -0.794693 -0.187598 -0.577295
vn -0.889692 -0.330397 -0.315097
vn -0.889692 -0.330397 -0.315097
vn -0.889692 -0.330397 -0.315097
vn -0.802621 0.125603 0.583115
vn -0.802621 0.125603 0.583115
vn -0.802621 0.125603 0.583115
vn -0.794693 -0.187598 0.577295
vn -0.794693 -0.187598 0.577295
vn -0.794693 -0.187598 0.577295
vn -0.574591 -0.330395 0.748788
vn -0.574591 -0.330395 0.748788
vn -0.574591 -0.330395 0.748788
vn 0.306604 0.125602 0.943514
vn 0.306604 0.125602 0.943514
vn 0.306604 0.125602 0.943514
vn 0.303495 -0.187597 0.934183
vn 0.303495 -0.187597 0.934183
vn 0.303495 -0.187597 0.934183
vn 0.534576 -0.330385 0.777865
vn 0.534576 -0.330385 0.777865
vn 0.534576 -0.330385 0.777865
vn 0.992081 0.125598 0.000000
vn 0.992081 0.125598 0.000000
vn 0.992081 0.125598 0.000000
vn 0.982244 -0.187608 0.000000
vn 0.982244 -0.187608 0.000000
vn 0.982244 -0.187608 0.000000
vn 0.904994 -0.330398 -0.267998
vn 0.904994 -0.330398 -0.267998
vn 0.904994 -0.330398 -0.267998
vn 0.471306 -0.661708 -0.583107
vn 0.471306 -0.661708 -0.583107
vn 0.471306 -0.661708 -0.583107
vn 0.187598 -0.794693 -0.577295
vn 0.187598 -0.794693 -0.577295
vn 0.187598 -0.794693 -0.577295
vn -0.038499 -0.661690 -0.748789
vn -0.038499 -0.661690 -0.748789
vn -0.038499 -0.661690 -0.748789
vn -0.408914 -0.661722 -0.628421
vn -0.408914 -0.661722 -0.628421
vn -0.408914 -0.661722 -0.628421
vn -0.491092 -0.794687 -0.356794
vn -0.491092 -0.794687 -0.356794
vn -0.491092 -0.794687 -0.356794
vn -0.724025 -0.661723 -0.194707
vn -0.724025 -0.661723 -0.194707
vn -0.724025 -0.661723 -0.194707
vn -0.724025 -0.661723 0.194707
vn -0.724025 -0.661723 0.194707
vn -0.724025 -0.661723 0.194707
vn -0.491092 -0.794687 0.356794
vn -0.491092 -0.794687 0.356794
vn -0.491092 -0.794687 0.356794
vn -0.408914 -0.661722 0.628421
vn -0.408914 -0.661722 0.628421
vn -0.408914 -0.661722 0.628421
vn 0.700217 -0.661716 -0.268007
vn 0.700217 -0.661716 -0.268007
vn 0.700217 -0.661716 -0.268007
vn 0.607064 -0.794653 0.000000
vn 0.607064 -0.794653 0.000000
vn 0.607064 -0.794653 0.000000
vn 0.331308 -0.943523 0.000000
vn 0.331308 -0.943523 0.000000
vn 0.331308 -0.943523 0.000000
vn -0.038499 -0.661690 0.748789
vn -0.038499 -0.661690 0.748789
vn -0.038499 -0.661690 0.748789
vn 0.187598 -0.794693 0.577295
vn 0.187598 -0.794693 0.577295
vn 0.187598 -0.794693 0.577295
vn 0.471306 -0.661708 0.583107
vn 0.471306 -0.661708 0.583107
vn 0.471306 -0.661708 0.583107
s off
g big_rock Low_Poly_Models:Mesh
usemtl lambert2SG
f 1//1 2//2 3//3
f 4//4 2//5 5//6
f 1//7 3//8 6//9
f 1//10 6//11 7//12
f 1//13 7//14 8//15
f 4//16 5//17 9//18
f 10//19 11//20 12//21
f 13//22 14//23 15//24
f 16//25 17//26 18//27
f 19//28 20//29 21//30
f 4//31 9//32 22//33
f 10//34 12//35 23//36
f 13//37 15//38 24//39
f 16//40 18//41 25//42
f 19//43 21//44 26//45
f 27//46 28//47 29//48
f 30//49 31//50 32//51
f 33//52 34//53 35//54
f 36//55 37//56 38//57
f 39//58 40//59 41//60
f 41//61 38//62 42//63
f 41//64 40//65 38//66
f 40//67 36//68 38//69
f 38//70 35//71 42//72
f 38//73 37//74 35//75
f 37//76 33//77 35//78
f 35//79 32//80 42//81
f 35//82 34//83 32//84
f 34//85 30//86 32//87
f 32//88 29//89 42//90
f 32//91 31//92 29//93
f 31//94 27//95 29//96
f 29//97 41//98 42//99
f 29//100 28//101 41//102
f 28//103 39//104 41//105
f 26//106 40//107 39//108
f 26//109 21//110 40//111
f 21//112 36//113 40//114
f 25//115 37//116 36//117
f 25//118 18//119 37//120
f 18//121 33//122 37//123
f 24//124 34//125 33//126
f 24//127 15//128 34//129
f 15//130 30//131 34//132
f 23//133 31//134 30//135
f 23//136 12//137 31//138
f 12//139 27//140 31//141
f 22//142 28//143 27//144
f 22//145 9//146 28//147
f 9//148 39//149 28//150
f 21//151 25//152 36//153
f 21//154 20//155 25//156
f 20//157 16//158 25//159
f 18//160 24//161 33//162
f 18//163 17//164 24//165
f 17//166 13//167 24//168
f 15//169 23//170 30//171
f 15//172 14//173 23//174
f 14//175 10//176 23//177
f 12//178 22//179 27//180
f 12//181 11//182 22//183
f 11//184 4//185 22//186
f 9//187 26//188 39//189
f 9//190 5//191 26//192
f 5//193 19//194 26//195
f 8//196 20//197 19//198
f 8//199 7//200 20//201
f 7//202 16//203 20//204
f 7//205 17//206 16//207
f 7//208 6//209 17//210
f 6//211 13//212 17//213
f 6//214 14//215 13//216
f 6//217 3//218 14//219
f 3//220 10//221 14//222
f 5//223 8//224 19//225
f 5//226 2//227 8//228
f 2//229 1//230 8//231
f 3//232 11//233 10//234
f 3//235 2//236 11//237
f 2//238 4//239 11//240
