# This file uses meters as units for non-parametric coordinates.

mtllib pinito_1.mtl
g default
v 0.249316 0.393920 -0.014610
v 0.249316 1.051631 -0.014610
v -0.004251 0.393920 0.190071
v -0.004251 1.051631 0.190071
v -0.277271 0.393920 0.012163
v -0.277271 1.051631 0.012163
v -0.192439 0.393920 -0.302470
v -0.192439 1.051631 -0.302470
v 0.133010 0.393920 -0.319017
v 0.133010 1.051631 -0.319017
v 0.032620 0.822401 0.914412
v 0.949631 0.889640 0.174199
v -0.954736 0.889640 0.271022
v -0.647943 0.889640 -0.866829
v 0.529019 0.822401 -0.926668
v 0.262686 3.853907 0.046031
v 0.398668 3.821596 -0.066791
v 0.116272 3.888695 -0.052032
v 0.161767 3.877886 -0.225461
v 0.336297 3.836416 -0.234581
v 0.047248 1.529486 0.556588
v 0.030147 2.137390 0.423017
v 0.062186 2.743320 0.289447
v 0.122906 3.349090 0.155877
v -0.109909 3.404408 -0.000057
v -0.306877 2.781406 0.047677
v -0.471773 2.166268 0.095412
v -0.587202 1.534979 0.143145
v 0.366221 1.526724 -0.626488
v 0.282488 2.122871 -0.514436
v 0.247736 2.724172 -0.402383
v 0.239955 3.321278 -0.290331
v 0.339136 3.297712 -0.023523
v 0.404955 2.707947 0.011293
v 0.496305 2.110569 0.046111
v 0.636497 1.524384 0.080927
v -0.037569 3.387219 -0.275828
v -0.192202 2.769572 -0.379898
v -0.315815 2.157295 -0.483966
v -0.390066 1.533272 -0.588037
v 0.106149 3.250131 0.277740
v 0.282268 3.208284 -0.393643
v -0.255866 3.350101 0.009923
v 0.447165 3.238771 0.007808
v -0.119639 3.373448 -0.371822
v 0.061049 2.637462 0.466860
v -0.474880 2.763013 0.111080
v 0.334096 2.609284 -0.551217
v 0.572630 2.654913 0.057539
v -0.306127 2.745598 -0.518126
v 0.034650 2.038737 0.622859
v -0.660034 2.148314 0.166830
v 0.385912 2.018526 -0.682085
v 0.687540 2.070781 0.098203
v -0.444217 2.113650 -0.639670
v 0.059655 1.418418 0.819146
v -0.833641 1.434802 0.236977
v 0.508873 1.422474 -0.846748
v 0.890054 1.489308 0.149366
v -0.555451 1.501824 -0.792603
v 0.207875 0.703101 -0.025784
v -0.006431 0.703101 0.147204
v -0.237176 0.703101 -0.003156
v -0.165480 0.703101 -0.269073
v 0.109579 0.703101 -0.283057
v 0.469389 4.277760 -0.018099
v 0.516603 4.266542 -0.057271
v 0.418554 4.289839 -0.052147
v 0.434350 4.286086 -0.112362
v 0.494947 4.271687 -0.115530
v 0.066126 2.998342 0.326315
v 0.268787 2.968720 -0.433313
v -0.331647 3.093694 0.060853
v 0.445833 2.980058 0.020904
v -0.206397 3.075388 -0.408623
v -0.465382 2.788078 0.107695
v 0.563978 2.679995 0.055069
v -0.299552 2.770666 -0.510746
v 0.061262 2.664582 0.457387
v 0.329578 2.636409 -0.543271
v 0.062592 2.667921 0.484297
v 0.344160 2.638228 -0.565844
v -0.490063 2.797548 0.117311
v 0.590137 2.683634 0.062084
v -0.316043 2.779197 -0.531712
v 0.109959 3.264946 0.271276
v 0.283191 3.223785 -0.389113
v -0.246008 3.363107 0.008184
v 0.445229 3.253098 0.005764
v -0.112294 3.385568 -0.367649
v 0.112567 3.269983 0.300812
v 0.299860 3.225481 -0.413175
v -0.272251 3.376055 0.016479
v 0.474997 3.256951 0.013751
v -0.127776 3.400174 -0.389968
v 0.035226 2.054695 0.614382
v 0.382277 2.034536 -0.674973
v -0.651175 2.162512 0.163800
v 0.680239 2.085175 0.095992
v -0.437931 2.128410 -0.633065
v 0.037375 2.056116 0.654551
v 0.404305 2.034763 -0.708669
v -0.688354 2.170016 0.178154
v 0.719325 2.088098 0.106462
v -0.462892 2.133991 -0.664362
v 0.058356 1.447704 0.801119
v 0.498616 1.450993 -0.831626
v -0.817132 1.464564 0.230534
v 0.872185 1.514459 0.144668
v -0.544504 1.528346 -0.778558
v 0.060178 1.460251 0.839835
v 0.519629 1.463458 -0.864105
v -0.853477 1.478109 0.244370
v 0.909478 1.529025 0.154759
v -0.568966 1.544048 -0.808723
v -0.941455 0.908199 0.266313
v 0.937850 0.907891 0.170764
v -0.638701 0.908150 -0.856564
v 0.032907 0.842941 0.901237
v 0.522772 0.842860 -0.915616
v 0.037846 0.853052 0.990485
v 0.571960 0.852934 -0.990485
v -1.024531 0.923793 0.298208
v 1.024531 0.923341 0.194028
v -0.694429 0.923720 -0.926099
v 0.585984 4.461068 -0.020119
vn 0.625004 -0.099101 0.774305
vn 0.625004 -0.099101 0.774305
vn 0.625004 -0.099101 0.774305
vn 0.625004 -0.099101 0.774305
vn -0.543286 -0.099097 0.833679
vn -0.543286 -0.099097 0.833679
vn -0.543286 -0.099097 0.833679
vn -0.543286 -0.099097 0.833679
vn -0.960782 -0.099098 -0.258995
vn -0.960782 -0.099098 -0.258995
vn -0.960782 -0.099098 -0.258995
vn -0.960782 -0.099098 -0.258995
vn -0.050500 -0.099100 -0.993795
vn -0.050500 -0.099100 -0.993795
vn -0.050500 -0.099100 -0.993795
vn -0.050500 -0.099100 -0.993795
vn 0.929519 -0.099102 -0.355207
vn 0.929519 -0.099102 -0.355207
vn 0.929519 -0.099102 -0.355207
vn 0.929519 -0.099102 -0.355207
vn 0.000000 -1.000000 0.000000
vn 0.000000 -1.000000 0.000000
vn 0.000000 -1.000000 0.000000
vn 0.000000 -1.000000 0.000000
vn 0.000000 -1.000000 0.000000
vn 0.928297 0.111600 -0.354699
vn 0.928297 0.111600 -0.354699
vn 0.928297 0.111600 -0.354699
vn 0.928297 0.111600 -0.354699
vn -0.050498 0.111597 -0.992470
vn -0.050498 0.111597 -0.992470
vn -0.050498 0.111597 -0.992470
vn -0.050498 0.111597 -0.992470
vn -0.959490 0.111599 -0.258697
vn -0.959490 0.111599 -0.258697
vn -0.959490 0.111599 -0.258697
vn -0.959490 0.111599 -0.258697
vn -0.542504 0.111601 0.832607
vn -0.542504 0.111601 0.832607
vn -0.542504 0.111601 0.832607
vn -0.542504 0.111601 0.832607
vn 0.624177 0.111596 0.773272
vn 0.624177 0.111596 0.773272
vn 0.624177 0.111596 0.773272
vn 0.624177 0.111596 0.773272
vn 0.137001 -0.947809 -0.287903
vn 0.137001 -0.947809 -0.287903
vn 0.137001 -0.947809 -0.287903
vn 0.137001 -0.947809 -0.287903
vn -0.441788 0.446388 0.778178
vn -0.441788 0.446388 0.778178
vn -0.441788 0.446388 0.778178
vn -0.441788 0.446388 0.778178
vn -0.280011 -0.947838 0.152306
vn -0.280011 -0.947838 0.152306
vn -0.280011 -0.947838 0.152306
vn -0.280011 -0.947838 0.152306
vn -0.165502 -0.947814 -0.272504
vn -0.165502 -0.947814 -0.272504
vn -0.165502 -0.947814 -0.272504
vn -0.165502 -0.947814 -0.272504
vn 0.257006 -0.963922 0.069302
vn 0.257006 -0.963922 0.069302
vn 0.257006 -0.963922 0.069302
vn 0.257006 -0.963922 0.069302
vn -0.026301 -0.947824 0.317708
vn -0.026301 -0.947824 0.317708
vn -0.026301 -0.947824 0.317708
vn -0.026301 -0.947824 0.317708
vn -0.775385 0.584189 -0.239795
vn -0.775385 0.584189 -0.239795
vn -0.775385 0.584189 -0.239795
vn -0.775385 0.584189 -0.239795
vn 0.926260 0.062397 -0.371684
vn 0.926260 0.062397 -0.371684
vn 0.926260 0.062397 -0.371684
vn 0.926260 0.062397 -0.371684
vn -0.788652 0.563737 -0.245416
vn -0.788652 0.563737 -0.245416
vn -0.788652 0.563737 -0.245416
vn -0.788652 0.563737 -0.245416
vn 0.625412 0.181404 0.758915
vn 0.625412 0.181404 0.758915
vn 0.625412 0.181404 0.758915
vn 0.625412 0.181404 0.758915
vn 0.051400 0.286197 -0.956791
vn 0.051400 0.286197 -0.956791
vn 0.051400 0.286197 -0.956791
vn 0.051400 0.286197 -0.956791
vn -0.026099 0.481286 -0.876175
vn -0.026099 0.481286 -0.876175
vn -0.026099 0.481286 -0.876175
vn -0.026099 0.481286 -0.876175
vn -0.013000 0.468289 -0.883480
vn -0.013000 0.468289 -0.883480
vn -0.013000 0.468289 -0.883480
vn -0.013000 0.468289 -0.883480
vn -0.001600 0.407297 -0.913294
vn -0.001600 0.407297 -0.913294
vn -0.001600 0.407297 -0.913294
vn -0.001600 0.407297 -0.913294
vn 0.038102 0.376219 -0.925747
vn 0.038102 0.376219 -0.925747
vn 0.038102 0.376219 -0.925747
vn 0.038102 0.376219 -0.925747
vn 0.545693 0.461294 0.699591
vn 0.545693 0.461294 0.699591
vn 0.545693 0.461294 0.699591
vn 0.545693 0.461294 0.699591
vn 0.542083 0.479085 0.690379
vn 0.542083 0.479085 0.690379
vn 0.542083 0.479085 0.690379
vn 0.542083 0.479085 0.690379
vn 0.580890 0.381794 0.718888
vn 0.580890 0.381794 0.718888
vn 0.580890 0.381794 0.718888
vn 0.580890 0.381794 0.718888
vn 0.625200 0.280800 0.728200
vn 0.625200 0.280800 0.728200
vn 0.625200 0.280800 0.728200
vn 0.625200 0.280800 0.728200
vn -0.818405 0.530403 -0.221101
vn -0.818405 0.530403 -0.221101
vn -0.818405 0.530403 -0.221101
vn -0.818405 0.530403 -0.221101
vn -0.865305 0.451502 -0.217701
vn -0.865305 0.451502 -0.217701
vn -0.865305 0.451502 -0.217701
vn -0.865305 0.451502 -0.217701
vn -0.846510 0.472906 -0.244503
vn -0.846510 0.472906 -0.244503
vn -0.846510 0.472906 -0.244503
vn -0.846510 0.472906 -0.244503
vn -0.809594 0.535596 -0.240198
vn -0.809594 0.535596 -0.240198
vn -0.809594 0.535596 -0.240198
vn -0.809594 0.535596 -0.240198
vn 0.828119 0.451210 -0.332608
vn 0.828119 0.451210 -0.332608
vn 0.828119 0.451210 -0.332608
vn 0.828119 0.451210 -0.332608
vn 0.809874 0.487684 -0.325989
vn 0.809874 0.487684 -0.325989
vn 0.809874 0.487684 -0.325989
vn 0.809874 0.487684 -0.325989
vn 0.864778 0.366391 -0.343391
vn 0.864778 0.366391 -0.343391
vn 0.864778 0.366391 -0.343391
vn 0.864778 0.366391 -0.343391
vn 0.909102 0.234501 -0.344301
vn 0.909102 0.234501 -0.344301
vn 0.909102 0.234501 -0.344301
vn 0.909102 0.234501 -0.344301
vn -0.458195 0.496295 0.737393
vn -0.458195 0.496295 0.737393
vn -0.458195 0.496295 0.737393
vn -0.458195 0.496295 0.737393
vn -0.480690 0.438491 0.759384
vn -0.480690 0.438491 0.759384
vn -0.480690 0.438491 0.759384
vn -0.480690 0.438491 0.759384
vn -0.449903 0.437803 0.778406
vn -0.449903 0.437803 0.778406
vn -0.449903 0.437803 0.778406
vn -0.449903 0.437803 0.778406
vn -0.418489 0.451788 0.787880
vn -0.418489 0.451788 0.787880
vn -0.418489 0.451788 0.787880
vn -0.418489 0.451788 0.787880
vn -0.241199 -0.796395 0.554597
vn -0.241199 -0.796395 0.554597
vn -0.241199 -0.796395 0.554597
vn -0.241199 -0.796395 0.554597
vn -0.471200 -0.739200 -0.481200
vn -0.471200 -0.739200 -0.481200
vn -0.471200 -0.739200 -0.481200
vn -0.471200 -0.739200 -0.481200
vn 0.259792 -0.962871 0.073398
vn 0.259792 -0.962871 0.073398
vn 0.259792 -0.962871 0.073398
vn 0.259792 -0.962871 0.073398
vn -0.665822 -0.695423 0.270309
vn -0.665822 -0.695423 0.270309
vn -0.665822 -0.695423 0.270309
vn -0.665822 -0.695423 0.270309
vn 0.230415 -0.763551 -0.603240
vn 0.230415 -0.763551 -0.603240
vn 0.230415 -0.763551 -0.603240
vn 0.230415 -0.763551 -0.603240
vn 0.099501 -0.911008 -0.400204
vn 0.099501 -0.911008 -0.400204
vn 0.099501 -0.911008 -0.400204
vn 0.099501 -0.911008 -0.400204
vn -0.478795 -0.852491 0.209798
vn -0.478795 -0.852491 0.209798
vn -0.478795 -0.852491 0.209798
vn -0.478795 -0.852491 0.209798
vn 0.131995 -0.989259 0.062797
vn 0.131995 -0.989259 0.062797
vn 0.131995 -0.989259 0.062797
vn 0.131995 -0.989259 0.062797
vn -0.321795 -0.868387 -0.377295
vn -0.321795 -0.868387 -0.377295
vn -0.321795 -0.868387 -0.377295
vn -0.321795 -0.868387 -0.377295
vn -0.126702 -0.888117 0.441808
vn -0.126702 -0.888117 0.441808
vn -0.126702 -0.888117 0.441808
vn -0.126702 -0.888117 0.441808
vn 0.107695 -0.937753 -0.330183
vn 0.107695 -0.937753 -0.330183
vn 0.107695 -0.937753 -0.330183
vn 0.107695 -0.937753 -0.330183
vn -0.377520 -0.909848 0.172209
vn -0.377520 -0.909848 0.172209
vn -0.377520 -0.909848 0.172209
vn -0.377520 -0.909848 0.172209
vn 0.170706 -0.982332 0.076703
vn 0.170706 -0.982332 0.076703
vn 0.170706 -0.982332 0.076703
vn 0.170706 -0.982332 0.076703
vn -0.247112 -0.917344 -0.312115
vn -0.247112 -0.917344 -0.312115
vn -0.247112 -0.917344 -0.312115
vn -0.247112 -0.917344 -0.312115
vn -0.060801 -0.905808 0.419304
vn -0.060801 -0.905808 0.419304
vn -0.060801 -0.905808 0.419304
vn -0.060801 -0.905808 0.419304
vn 0.233397 -0.895989 -0.377795
vn 0.233397 -0.895989 -0.377795
vn 0.233397 -0.895989 -0.377795
vn 0.233397 -0.895989 -0.377795
vn -0.279192 -0.949573 0.142696
vn -0.279192 -0.949573 0.142696
vn -0.279192 -0.949573 0.142696
vn -0.279192 -0.949573 0.142696
vn 0.293396 -0.954987 0.043799
vn 0.293396 -0.954987 0.043799
vn 0.293396 -0.954987 0.043799
vn 0.293396 -0.954987 0.043799
vn -0.177704 -0.945022 -0.274507
vn -0.177704 -0.945022 -0.274507
vn -0.177704 -0.945022 -0.274507
vn -0.177704 -0.945022 -0.274507
vn -0.029400 -0.951705 0.305602
vn -0.029400 -0.951705 0.305602
vn -0.029400 -0.951705 0.305602
vn -0.029400 -0.951705 0.305602
vn 0.231201 0.972906 0.000000
vn 0.231201 0.972906 0.000000
vn 0.231201 0.972906 0.000000
vn 0.231201 0.972906 0.000000
vn 0.231201 0.972906 0.000000
vn 0.603318 -0.176505 0.777723
vn 0.603318 -0.176505 0.777723
vn 0.603318 -0.176505 0.777723
vn 0.603318 -0.176505 0.777723
vn 0.011299 0.259986 -0.965546
vn 0.011299 0.259986 -0.965546
vn 0.011299 0.259986 -0.965546
vn 0.011299 0.259986 -0.965546
vn -0.462827 0.349020 0.814847
vn -0.462827 0.349020 0.814847
vn -0.462827 0.349020 0.814847
vn -0.462827 0.349020 0.814847
vn 0.904819 -0.232205 -0.356908
vn 0.904819 -0.232205 -0.356908
vn 0.904819 -0.232205 -0.356908
vn 0.904819 -0.232205 -0.356908
vn -0.444102 0.390702 0.806304
vn -0.444102 0.390702 0.806304
vn -0.444102 0.390702 0.806304
vn -0.444102 0.390702 0.806304
vn 0.864304 0.354802 -0.356502
vn 0.864304 0.354802 -0.356502
vn 0.864304 0.354802 -0.356502
vn 0.864304 0.354802 -0.356502
vn -0.872038 0.422418 -0.247211
vn -0.872038 0.422418 -0.247211
vn -0.872038 0.422418 -0.247211
vn -0.872038 0.422418 -0.247211
vn 0.583812 0.362007 0.726715
vn 0.583812 0.362007 0.726715
vn 0.583812 0.362007 0.726715
vn 0.583812 0.362007 0.726715
vn 0.034001 0.375913 -0.926031
vn 0.034001 0.375913 -0.926031
vn 0.034001 0.375913 -0.926031
vn 0.034001 0.375913 -0.926031
vn 0.010400 0.281409 -0.959531
vn 0.010400 0.281409 -0.959531
vn 0.010400 0.281409 -0.959531
vn 0.010400 0.281409 -0.959531
vn 0.596368 0.269385 0.756159
vn 0.596368 0.269385 0.756159
vn 0.596368 0.269385 0.756159
vn 0.596368 0.269385 0.756159
vn -0.914921 0.313607 -0.254106
vn -0.914921 0.313607 -0.254106
vn -0.914921 0.313607 -0.254106
vn -0.914921 0.313607 -0.254106
vn 0.891392 0.263598 -0.368697
vn 0.891392 0.263598 -0.368697
vn 0.891392 0.263598 -0.368697
vn 0.891392 0.263598 -0.368697
vn -0.480230 0.293018 0.826752
vn -0.480230 0.293018 0.826752
vn -0.480230 0.293018 0.826752
vn -0.480230 0.293018 0.826752
vn -0.214503 -0.952312 -0.217003
vn -0.214503 -0.952312 -0.217003
vn -0.214503 -0.952312 -0.217003
vn -0.214503 -0.952312 -0.217003
vn 0.116703 -0.987222 0.108502
vn 0.116703 -0.987222 0.108502
vn 0.116703 -0.987222 0.108502
vn 0.116703 -0.987222 0.108502
vn -0.381708 -0.921120 -0.076402
vn -0.381708 -0.921120 -0.076402
vn -0.381708 -0.921120 -0.076402
vn -0.381708 -0.921120 -0.076402
vn 0.139202 -0.990113 0.017300
vn 0.139202 -0.990113 0.017300
vn 0.139202 -0.990113 0.017300
vn 0.139202 -0.990113 0.017300
vn -0.308988 -0.941764 0.132695
vn -0.308988 -0.941764 0.132695
vn -0.308988 -0.941764 0.132695
vn -0.308988 -0.941764 0.132695
vn 0.063902 0.282510 -0.957134
vn 0.063902 0.282510 -0.957134
vn 0.063902 0.282510 -0.957134
vn 0.063902 0.282510 -0.957134
vn 0.614007 0.184602 0.767409
vn 0.614007 0.184602 0.767409
vn 0.614007 0.184602 0.767409
vn 0.614007 0.184602 0.767409
vn -0.788267 0.563676 -0.246790
vn -0.788267 0.563676 -0.246790
vn -0.788267 0.563676 -0.246790
vn -0.788267 0.563676 -0.246790
vn 0.921536 0.063202 -0.383115
vn 0.921536 0.063202 -0.383115
vn 0.921536 0.063202 -0.383115
vn 0.921536 0.063202 -0.383115
vn -0.448219 0.448219 0.773433
vn -0.448219 0.448219 0.773433
vn -0.448219 0.448219 0.773433
vn -0.448219 0.448219 0.773433
vn -0.373590 -0.872076 -0.316091
vn -0.373590 -0.872076 -0.316091
vn -0.373590 -0.872076 -0.316091
vn -0.373590 -0.872076 -0.316091
vn 0.088799 -0.983694 0.156399
vn 0.088799 -0.983694 0.156399
vn 0.088799 -0.983694 0.156399
vn 0.088799 -0.983694 0.156399
vn -0.484003 -0.846306 -0.222502
vn -0.484003 -0.846306 -0.222502
vn -0.484003 -0.846306 -0.222502
vn -0.484003 -0.846306 -0.222502
vn 0.125999 -0.991793 0.021700
vn 0.125999 -0.991793 0.021700
vn 0.125999 -0.991793 0.021700
vn 0.125999 -0.991793 0.021700
vn -0.387282 -0.902758 0.187191
vn -0.387282 -0.902758 0.187191
vn -0.387282 -0.902758 0.187191
vn -0.387282 -0.902758 0.187191
vn -0.444395 0.437395 0.781792
vn -0.444395 0.437395 0.781792
vn -0.444395 0.437395 0.781792
vn -0.444395 0.437395 0.781792
vn 0.859376 0.366590 -0.356490
vn 0.859376 0.366590 -0.356490
vn 0.859376 0.366590 -0.356490
vn 0.859376 0.366590 -0.356490
vn -0.845903 0.472902 -0.246601
vn -0.845903 0.472902 -0.246601
vn -0.845903 0.472902 -0.246601
vn -0.845903 0.472902 -0.246601
vn 0.567514 0.382510 0.729119
vn 0.567514 0.382510 0.729119
vn 0.567514 0.382510 0.729119
vn 0.567514 0.382510 0.729119
vn 0.000000 0.407215 -0.913333
vn 0.000000 0.407215 -0.913333
vn 0.000000 0.407215 -0.913333
vn 0.000000 0.407215 -0.913333
vn -0.182702 -0.982210 0.043400
vn -0.182702 -0.982210 0.043400
vn -0.182702 -0.982210 0.043400
vn -0.182702 -0.982210 0.043400
vn 0.066500 -0.996996 0.039700
vn 0.066500 -0.996996 0.039700
vn 0.066500 -0.996996 0.039700
vn 0.066500 -0.996996 0.039700
vn -0.202808 -0.979140 -0.012401
vn -0.202808 -0.979140 -0.012401
vn -0.202808 -0.979140 -0.012401
vn -0.202808 -0.979140 -0.012401
vn 0.069903 -0.997144 0.028601
vn 0.069903 -0.997144 0.028601
vn 0.069903 -0.997144 0.028601
vn 0.069903 -0.997144 0.028601
vn -0.117499 -0.989590 -0.083099
vn -0.117499 -0.989590 -0.083099
vn -0.117499 -0.989590 -0.083099
vn -0.117499 -0.989590 -0.083099
vn -0.484899 0.438499 0.756698
vn -0.484899 0.438499 0.756698
vn -0.484899 0.438499 0.756698
vn -0.484899 0.438499 0.756698
vn 0.804202 0.487502 -0.340001
vn 0.804202 0.487502 -0.340001
vn 0.804202 0.487502 -0.340001
vn 0.804202 0.487502 -0.340001
vn -0.868310 0.451405 -0.205602
vn -0.868310 0.451405 -0.205602
vn -0.868310 0.451405 -0.205602
vn -0.868310 0.451405 -0.205602
vn 0.526609 0.478708 0.702511
vn 0.526609 0.478708 0.702511
vn 0.526609 0.478708 0.702511
vn 0.526609 0.478708 0.702511
vn -0.010100 0.468305 -0.883509
vn -0.010100 0.468305 -0.883509
vn -0.010100 0.468305 -0.883509
vn -0.010100 0.468305 -0.883509
vn -0.221812 -0.923550 0.312817
vn -0.221812 -0.923550 0.312817
vn -0.221812 -0.923550 0.312817
vn -0.221812 -0.923550 0.312817
vn 0.390204 -0.916309 -0.090101
vn 0.390204 -0.916309 -0.090101
vn 0.390204 -0.916309 -0.090101
vn 0.390204 -0.916309 -0.090101
vn -0.391811 -0.905527 -0.162805
vn -0.391811 -0.905527 -0.162805
vn -0.391811 -0.905527 -0.162805
vn -0.391811 -0.905527 -0.162805
vn 0.294596 -0.915888 0.272696
vn 0.294596 -0.915888 0.272696
vn 0.294596 -0.915888 0.272696
vn 0.294596 -0.915888 0.272696
vn -0.088000 -0.910295 -0.404498
vn -0.088000 -0.910295 -0.404498
vn -0.088000 -0.910295 -0.404498
vn -0.088000 -0.910295 -0.404498
vn -0.450302 0.495902 0.742503
vn -0.450302 0.495902 0.742503
vn -0.450302 0.495902 0.742503
vn -0.450302 0.495902 0.742503
vn 0.824205 0.451203 -0.342202
vn 0.824205 0.451203 -0.342202
vn 0.824205 0.451203 -0.342202
vn 0.824205 0.451203 -0.342202
vn -0.818510 0.530407 -0.220703
vn -0.818510 0.530407 -0.220703
vn -0.818510 0.530407 -0.220703
vn -0.818510 0.530407 -0.220703
vn 0.536692 0.461493 0.706389
vn 0.536692 0.461493 0.706389
vn 0.536692 0.461493 0.706389
vn 0.536692 0.461493 0.706389
vn -0.017300 0.480902 -0.876604
vn -0.017300 0.480902 -0.876604
vn -0.017300 0.480902 -0.876604
vn -0.017300 0.480902 -0.876604
vn -0.141906 -0.982941 0.117005
vn -0.141906 -0.982941 0.117005
vn -0.141906 -0.982941 0.117005
vn -0.141906 -0.982941 0.117005
vn 0.180794 -0.983466 -0.010400
vn 0.180794 -0.983466 -0.010400
vn 0.180794 -0.983466 -0.010400
vn 0.180794 -0.983466 -0.010400
vn -0.204503 -0.977314 -0.055101
vn -0.204503 -0.977314 -0.055101
vn -0.204503 -0.977314 -0.055101
vn -0.204503 -0.977314 -0.055101
vn 0.151200 -0.983402 0.100300
vn 0.151200 -0.983402 0.100300
vn 0.151200 -0.983402 0.100300
vn 0.151200 -0.983402 0.100300
vn -0.063799 -0.983082 -0.171697
vn -0.063799 -0.983082 -0.171697
vn -0.063799 -0.983082 -0.171697
vn -0.063799 -0.983082 -0.171697
vn 0.899394 -0.252698 -0.356698
vn 0.899394 -0.252698 -0.356698
vn 0.899394 -0.252698 -0.356698
vn 0.550594 -0.341796 0.761592
vn 0.550594 -0.341796 0.761592
vn 0.550594 -0.341796 0.761592
vn -0.476389 0.312093 0.821981
vn -0.476389 0.312093 0.821981
vn -0.476389 0.312093 0.821981
vn 0.054602 0.428213 -0.902027
vn 0.054602 0.428213 -0.902027
vn 0.054602 0.428213 -0.902027
vn -0.676314 0.702615 -0.221205
vn -0.676314 0.702615 -0.221205
vn -0.676314 0.702615 -0.221205
s off
g pinito_1 Low_Poly_Models:Mesh
usemtl lambert2SG
f 61//1 2//2 4//3 62//4
f 62//5 4//6 6//7 63//8
f 63//9 6//10 8//11 64//12
f 64//13 8//14 10//15 65//16
f 65//17 10//18 2//19 61//20
f 1//21 3//22 5//23 7//24 9//25
f 9//26 65//27 61//28 1//29
f 7//30 64//31 65//32 9//33
f 5//34 63//35 64//36 7//37
f 3//38 62//39 63//40 5//41
f 1//42 61//43 62//44 3//45
f 6//46 4//47 11//48 13//49
f 93//50 91//51 16//52 18//53
f 2//54 10//55 15//56 12//57
f 4//58 2//59 12//60 11//61
f 8//62 6//63 13//64 14//65
f 10//66 8//67 14//68 15//69
f 19//70 18//71 68//72 69//73
f 94//74 92//75 20//76 17//77
f 95//78 93//79 18//80 19//81
f 91//82 94//83 17//84 16//85
f 92//86 95//87 19//88 20//89
f 122//90 125//91 40//92 29//93
f 112//94 115//95 39//96 30//97
f 102//98 105//99 38//100 31//101
f 72//102 75//103 37//104 32//105
f 121//106 124//107 36//108 21//109
f 111//110 114//111 35//112 22//113
f 101//114 104//115 34//116 23//117
f 71//118 74//119 33//120 24//121
f 125//122 123//123 28//124 40//125
f 115//126 113//127 27//128 39//129
f 105//130 103//131 26//132 38//133
f 75//134 73//135 25//136 37//137
f 124//138 122//139 29//140 36//141
f 114//142 112//143 30//144 35//145
f 104//146 102//147 31//148 34//149
f 74//150 72//151 32//152 33//153
f 123//154 121//155 21//156 28//157
f 113//158 111//159 22//160 27//161
f 103//162 101//163 23//164 26//165
f 73//166 71//167 24//168 25//169
f 32//170 37//171 45//172 42//173
f 24//174 33//175 44//176 41//177
f 37//178 25//179 43//180 45//181
f 33//182 32//183 42//184 44//185
f 25//186 24//187 41//188 43//189
f 26//190 23//191 46//192 47//193
f 34//194 31//195 48//196 49//197
f 38//198 26//199 47//200 50//201
f 23//202 34//203 49//204 46//205
f 31//206 38//207 50//208 48//209
f 27//210 22//211 51//212 52//213
f 35//214 30//215 53//216 54//217
f 39//218 27//219 52//220 55//221
f 22//222 35//223 54//224 51//225
f 30//226 39//227 55//228 53//229
f 28//230 21//231 56//232 57//233
f 36//234 29//235 58//236 59//237
f 40//238 28//239 57//240 60//241
f 21//242 36//243 59//244 56//245
f 29//246 40//247 60//248 58//249
f 66//250 67//251 70//252 69//253 68//254
f 16//255 17//256 67//257 66//258
f 20//259 19//260 69//261 70//262
f 18//263 16//264 66//265 68//266
f 17//267 20//268 70//269 67//270
f 83//271 81//272 71//273 73//274
f 84//275 82//276 72//277 74//278
f 85//279 83//280 73//281 75//282
f 81//283 84//284 74//285 71//286
f 82//287 85//288 75//289 72//290
f 48//291 50//292 78//293 80//294
f 46//295 49//296 77//297 79//298
f 50//299 47//300 76//301 78//302
f 49//303 48//304 80//305 77//306
f 47//307 46//308 79//309 76//310
f 80//311 78//312 85//313 82//314
f 79//315 77//316 84//317 81//318
f 78//319 76//320 83//321 85//322
f 77//323 80//324 82//325 84//326
f 76//327 79//328 81//329 83//330
f 42//331 45//332 90//333 87//334
f 41//335 44//336 89//337 86//338
f 45//339 43//340 88//341 90//342
f 44//343 42//344 87//345 89//346
f 43//347 41//348 86//349 88//350
f 87//351 90//352 95//353 92//354
f 86//355 89//356 94//357 91//358
f 90//359 88//360 93//361 95//362
f 89//363 87//364 92//365 94//366
f 88//367 86//368 91//369 93//370
f 52//371 51//372 96//373 98//374
f 54//375 53//376 97//377 99//378
f 55//379 52//380 98//381 100//382
f 51//383 54//384 99//385 96//386
f 53//387 55//388 100//389 97//390
f 98//391 96//392 101//393 103//394
f 99//395 97//396 102//397 104//398
f 100//399 98//400 103//401 105//402
f 96//403 99//404 104//405 101//406
f 97//407 100//408 105//409 102//410
f 57//411 56//412 106//413 108//414
f 59//415 58//416 107//417 109//418
f 60//419 57//420 108//421 110//422
f 56//423 59//424 109//425 106//426
f 58//427 60//428 110//429 107//430
f 108//431 106//432 111//433 113//434
f 109//435 107//436 112//437 114//438
f 110//439 108//440 113//441 115//442
f 106//443 109//444 114//445 111//446
f 107//447 110//448 115//449 112//450
f 13//451 11//452 119//453 116//454
f 12//455 15//456 120//457 117//458
f 14//459 13//460 116//461 118//462
f 11//463 12//464 117//465 119//466
f 15//467 14//468 118//469 120//470
f 116//471 119//472 121//473 123//474
f 117//475 120//476 122//477 124//478
f 118//479 116//480 123//481 125//482
f 119//483 117//484 124//485 121//486
f 120//487 118//488 125//489 122//490
f 67//491 70//492 126//493
f 66//494 67//495 126//496
f 68//497 66//498 126//499
f 70//500 69//501 126//502
f 126//503 69//504 68//505
