# This file uses meters as units for non-parametric coordinates.

mtllib small_rock1.mtl
g default
v -0.494198 0.733360 -0.588761
v -0.112625 1.288220 -1.202743
v -0.337130 0.234779 0.142294
v -1.008406 1.181381 -0.460263
v -0.861562 0.560525 0.170781
v -0.569027 0.336934 0.985254
v -1.174582 1.103201 0.209681
v -1.058187 1.276756 0.800641
v -0.850629 1.950783 -0.499943
v -1.006395 1.895343 0.104477
v -0.376367 0.978110 1.474617
v -0.673038 1.903930 0.776626
v -0.234626 2.533359 -0.225437
v 0.327309 2.510399 -0.065722
v 0.275379 2.007368 1.020147
v 0.154238 2.018949 -1.474617
v 0.499294 1.647993 1.390491
v 0.901008 2.170816 0.177200
v 0.764330 1.569552 1.403717
v 0.825130 1.896110 -0.852347
v 1.153775 1.259113 0.881675
v 1.174582 1.204815 -0.361499
v 1.014407 0.755639 -0.136165
v 0.579910 1.540788 -1.275825
v 0.543499 0.288490 0.877934
v 0.249703 0.466968 -0.382301
vn -0.065849 -0.719615 -0.691244
vn -0.065849 -0.719615 -0.691244
vn -0.065849 -0.719615 -0.691244
vn -0.149282 -0.831536 -0.535036
vn -0.149282 -0.831536 -0.535036
vn -0.149282 -0.831536 -0.535036
vn -0.548165 -0.422046 -0.722075
vn -0.548165 -0.422046 -0.722075
vn -0.548165 -0.422046 -0.722075
vn -0.633184 -0.055980 -0.771974
vn -0.633184 -0.055980 -0.771974
vn -0.633184 -0.055980 -0.771974
vn -0.843603 -0.467685 -0.263828
vn -0.843603 -0.467685 -0.263828
vn -0.843603 -0.467685 -0.263828
vn -0.871419 -0.396944 0.288209
vn -0.871419 -0.396944 0.288208
vn -0.871419 -0.396944 0.288209
vn -0.955748 0.184158 -0.229416
vn -0.955748 0.184158 -0.229416
vn -0.955748 0.184158 -0.229416
vn -0.960196 0.174947 -0.217755
vn -0.960196 0.174947 -0.217755
vn -0.960196 0.174947 -0.217756
vn -0.966979 0.221944 0.125272
vn -0.966979 0.221944 0.125272
vn -0.966979 0.221944 0.125272
vn -0.734017 -0.258696 0.627930
vn -0.734017 -0.258696 0.627930
vn -0.734017 -0.258696 0.627930
vn -0.781242 0.494357 0.381147
vn -0.781242 0.494357 0.381147
vn -0.781242 0.494357 0.381147
vn -0.494454 0.738682 -0.458109
vn -0.494454 0.738682 -0.458109
vn -0.494454 0.738682 -0.458109
vn -0.210639 0.866672 0.452229
vn -0.210639 0.866672 0.452229
vn -0.210639 0.866672 0.452229
vn -0.009094 0.136294 0.990627
vn -0.009094 0.136294 0.990627
vn -0.009094 0.136294 0.990627
vn 0.134955 0.930295 -0.341083
vn 0.134955 0.930295 -0.341083
vn 0.134955 0.930295 -0.341083
vn 0.418557 0.816263 0.398152
vn 0.418557 0.816263 0.398152
vn 0.418557 0.816263 0.398152
vn 0.580491 0.744027 -0.330839
vn 0.580491 0.744027 -0.330839
vn 0.580491 0.744027 -0.330839
vn 0.264311 -0.404833 0.875357
vn 0.264311 -0.404833 0.875357
vn 0.264311 -0.404833 0.875357
vn 0.816313 0.477477 0.325036
vn 0.816313 0.477477 0.325036
vn 0.816313 0.477477 0.325036
vn 0.404712 0.875665 -0.263474
vn 0.404712 0.875665 -0.263474
vn 0.404712 0.875665 -0.263474
vn 0.613056 -0.388110 0.688137
vn 0.613056 -0.388110 0.688137
vn 0.613056 -0.388110 0.688137
vn 0.946137 -0.322383 0.029916
vn 0.946137 -0.322383 0.029916
vn 0.946137 -0.322383 0.029916
vn 0.049107 -0.615259 0.786794
vn 0.049107 -0.615259 0.786794
vn 0.049107 -0.615259 0.786794
vn 0.443899 -0.649866 -0.616951
vn 0.443899 -0.649866 -0.616951
vn 0.443899 -0.649866 -0.616951
vn 0.032458 -0.358913 -0.932807
vn 0.032458 -0.358913 -0.932807
vn 0.032458 -0.358913 -0.932807
vn 0.163429 -0.660235 -0.733062
vn 0.163429 -0.660235 -0.733062
vn 0.163429 -0.660235 -0.733062
vn -0.032501 -0.993241 0.111426
vn -0.032501 -0.993241 0.111426
vn -0.032501 -0.993241 0.111426
vn -0.528832 -0.847649 -0.042758
vn -0.528832 -0.847649 -0.042758
vn -0.528832 -0.847649 -0.042758
vn -0.848805 -0.501581 0.167171
vn -0.848805 -0.501581 0.167171
vn -0.848805 -0.501581 0.167171
vn -0.696010 0.106102 -0.710150
vn -0.696010 0.106102 -0.710150
vn -0.696010 0.106102 -0.710150
vn -0.258802 0.610303 0.748700
vn -0.258802 0.610303 0.748700
vn -0.258802 0.610303 0.748700
vn -0.563754 0.374393 0.736214
vn -0.563754 0.374393 0.736214
vn -0.563754 0.374393 0.736214
vn -0.659298 0.744989 -0.101575
vn -0.659298 0.744989 -0.101575
vn -0.659298 0.744989 -0.101575
vn -0.546425 0.795854 0.260836
vn -0.546425 0.795854 0.260836
vn -0.546425 0.795854 0.260836
vn 0.922176 0.351343 -0.161711
vn 0.922176 0.351343 -0.161711
vn 0.922176 0.351343 -0.161711
vn -0.310458 0.506821 0.804207
vn -0.310458 0.506821 0.804207
vn -0.310458 0.506821 0.804207
vn -0.081154 0.905849 0.415755
vn -0.081154 0.905849 0.415755
vn -0.081154 0.905849 0.415755
vn 0.193998 0.760046 0.620238
vn 0.193998 0.760046 0.620238
vn 0.193998 0.760046 0.620238
vn 0.308348 0.840130 0.446211
vn 0.308348 0.840130 0.446211
vn 0.308348 0.840130 0.446211
vn 0.962778 0.270259 0.004310
vn 0.962778 0.270259 0.004310
vn 0.962778 0.270259 0.004310
vn -0.578960 -0.688547 -0.436702
vn -0.578960 -0.688547 -0.436703
vn -0.578960 -0.688547 -0.436702
vn -0.578960 -0.688547 -0.436702
vn 0.837241 -0.526975 0.146029
vn 0.837241 -0.526975 0.146029
vn 0.837241 -0.526975 0.146029
vn 0.845541 0.049992 -0.531565
vn 0.845541 0.049992 -0.531565
vn 0.845541 0.049992 -0.531565
vn 0.617952 -0.517352 -0.592016
vn 0.617952 -0.517352 -0.592016
vn 0.617952 -0.517352 -0.592016
vn 0.405742 -0.887061 -0.220218
vn 0.405742 -0.887061 -0.220218
vn 0.405742 -0.887061 -0.220218
vn 0.213560 -0.959133 -0.185622
vn 0.213560 -0.959133 -0.185622
vn 0.213560 -0.959133 -0.185622
vn 0.674459 0.324765 -0.663048
vn 0.674459 0.324765 -0.663048
vn 0.674459 0.324765 -0.663048
s off
g polySurface51 Low_Poly_Models:Mesh
usemtl blinn1SG
f 26//1 1//2 2//3
f 26//4 3//5 1//6
f 1//7 4//8 2//9
f 2//10 4//11 16//12
f 4//13 5//14 7//15
f 7//16 6//17 8//18
f 9//19 4//20 10//21
f 4//22 7//23 10//24
f 10//25 7//26 8//27
f 6//28 11//29 8//30
f 10//31 8//32 12//33
f 16//34 9//35 13//36
f 13//37 12//38 15//39
f 11//40 19//41 17//42
f 13//43 14//44 16//45
f 15//46 19//47 14//48
f 14//49 18//50 16//51
f 19//52 11//53 25//54
f 18//55 19//56 21//57
f 16//58 18//59 20//60
f 19//61 25//62 21//63
f 22//64 21//65 23//66
f 11//67 6//68 25//69
f 24//70 23//71 26//72
f 24//73 2//74 16//75
f 24//76 26//77 2//78
f 25//79 6//80 3//81
f 3//82 6//83 5//84
f 5//85 6//86 7//87
f 4//88 9//89 16//90
f 17//91 15//92 12//93
f 11//94 12//95 8//96
f 9//97 10//98 13//99
f 10//100 12//101 13//102
f 22//103 20//104 18//105
f 11//106 17//107 12//108
f 13//109 15//110 14//111
f 15//112 17//113 19//114
f 14//115 19//116 18//117
f 18//118 21//119 22//120
f 1//121 3//122 5//123 4//124
f 21//125 25//126 23//127
f 20//128 22//129 24//130
f 22//131 23//132 24//133
f 25//134 26//135 23//136
f 25//137 3//138 26//139
f 24//140 16//141 20//142
