# This file uses centimeters as units for non-parametric coordinates.

mtllib arbolito.mtl
g default
v 7.092386 0.149358 -13.817566
v 7.092386 0.842784 -13.817566
v 7.288886 0.842784 -13.674801
v 7.288886 0.149358 -13.674801
v 7.213830 0.842784 -13.443802
v 7.213830 0.149358 -13.443802
v 6.970943 0.842784 -13.443802
v 6.970943 0.149358 -13.443802
v 6.895887 0.842784 -13.674801
v 6.895887 0.149358 -13.674801
vn 0.587803 0.000000 -0.809004
vn 0.587803 0.000000 -0.809004
vn 0.587803 0.000000 -0.809004
vn 0.587803 0.000000 -0.809004
vn 0.951066 0.000000 0.308989
vn 0.951066 0.000000 0.308989
vn 0.951066 0.000000 0.308989
vn 0.951066 0.000000 0.308989
vn 0.000000 0.000000 1.000000
vn 0.000000 0.000000 1.000000
vn 0.000000 0.000000 1.000000
vn 0.000000 0.000000 1.000000
vn 0.000000 1.000000 0.000000
vn 0.000000 1.000000 0.000000
vn 0.000000 1.000000 0.000000
vn 0.000000 1.000000 0.000000
vn 0.000000 1.000000 0.000000
vn -0.951066 0.000000 0.308989
vn -0.951066 0.000000 0.308989
vn -0.951066 0.000000 0.308989
vn -0.951066 0.000000 0.308989
vn -0.587803 0.000000 -0.809004
vn -0.587803 0.000000 -0.809004
vn -0.587803 0.000000 -0.809004
vn -0.587803 0.000000 -0.809004
vn 0.000000 -1.000000 0.000000
vn 0.000000 -1.000000 0.000000
vn 0.000000 -1.000000 0.000000
vn 0.000000 -1.000000 0.000000
vn 0.000000 -1.000000 0.000000
s off
g polySurface1 Low_Poly_Models:Mesh
usemtl lambert2SG
f 1//1 2//2 3//3 4//4
f 4//5 3//6 5//7 6//8
f 6//9 5//10 7//11 8//12
f 3//13 2//14 9//15 7//16 5//17
f 8//18 7//19 9//20 10//21
f 10//22 9//23 2//24 1//25
f 1//26 4//27 6//28 8//29 10//30
g default
v 7.092386 0.581492 -13.610954
v 7.263133 0.676140 -13.486901
v 7.027168 0.676140 -13.410231
v 7.382879 1.007920 -13.399901
v 7.433880 0.934231 -13.610954
v 6.881331 0.676141 -13.610954
v 7.027168 0.676140 -13.811678
v 7.263133 0.676140 -13.735007
v 7.474190 1.520427 -13.486900
v 6.981430 1.007920 -13.269460
v 7.197916 0.934229 -13.286176
v 7.092386 1.520427 -13.209503
v 6.733318 1.007924 -13.610954
v 6.816112 0.934230 -13.410230
v 6.710583 1.520427 -13.486900
v 6.981430 1.007920 -13.952449
v 6.816112 0.934230 -13.811679
v 6.856419 1.520427 -13.935735
v 7.382879 1.007920 -13.822007
v 7.197916 0.934229 -13.935733
v 7.328354 1.520427 -13.935735
v 7.328354 1.520427 -13.286173
v 6.856419 1.520427 -13.286173
v 6.710583 1.520427 -13.735008
v 7.092386 1.520427 -14.012405
v 7.474190 1.520427 -13.735008
v 7.203342 2.216444 -13.269460
v 7.368660 2.361618 -13.410230
v 7.157604 2.995977 -13.410231
v 6.801893 2.216443 -13.399901
v 6.986857 2.361622 -13.286175
v 6.921640 2.995977 -13.486901
v 6.801893 2.216443 -13.822007
v 6.750893 2.361618 -13.610954
v 6.921640 2.995977 -13.735007
v 7.203342 2.216444 -13.952448
v 6.986857 2.361622 -13.935733
v 7.157604 2.995977 -13.811678
v 7.451455 2.216436 -13.610954
v 7.368660 2.361618 -13.811679
v 7.303441 2.995974 -13.610954
v 7.092386 3.248968 -13.610954
vn 0.149802 -0.874609 0.461105
vn 0.149802 -0.874609 0.461105
vn 0.149802 -0.874609 0.461105
vn 0.850666 -0.397284 0.344286
vn 0.850666 -0.397284 0.344286
vn 0.850666 -0.397284 0.344286
vn -0.392206 -0.874613 0.285004
vn -0.392206 -0.874613 0.285004
vn -0.392206 -0.874613 0.285004
vn -0.392206 -0.874613 -0.285004
vn -0.392206 -0.874613 -0.285004
vn -0.392206 -0.874613 -0.285004
vn 0.149802 -0.874609 -0.461105
vn 0.149802 -0.874609 -0.461105
vn 0.149802 -0.874609 -0.461105
vn 0.953884 -0.123498 0.273595
vn 0.953884 -0.123498 0.273595
vn 0.953884 -0.123498 0.273595
vn 0.034502 -0.123505 0.991744
vn 0.034502 -0.123505 0.991744
vn 0.034502 -0.123505 0.991744
vn -0.932531 -0.123504 0.339311
vn -0.932531 -0.123504 0.339311
vn -0.932531 -0.123504 0.339311
vn -0.610908 -0.123502 -0.782010
vn -0.610908 -0.123502 -0.782010
vn -0.610908 -0.123502 -0.782010
vn 0.555014 -0.123503 -0.822621
vn 0.555014 -0.123503 -0.822621
vn 0.555014 -0.123503 -0.822621
vn 0.808219 -0.044301 0.587214
vn 0.808219 -0.044301 0.587214
vn 0.808219 -0.044301 0.587214
vn -0.308708 -0.044301 0.950125
vn -0.308708 -0.044301 0.950125
vn -0.308708 -0.044301 0.950125
vn -0.999018 -0.044301 0.000000
vn -0.999018 -0.044301 0.000000
vn -0.999018 -0.044301 0.000000
vn -0.308708 -0.044301 -0.950125
vn -0.308708 -0.044301 -0.950125
vn -0.308708 -0.044301 -0.950125
vn 0.808219 -0.044301 -0.587214
vn 0.808219 -0.044301 -0.587214
vn 0.808219 -0.044301 -0.587214
vn 0.541192 0.180097 0.821387
vn 0.541192 0.180097 0.821387
vn 0.541192 0.180097 0.821387
vn -0.613883 0.180095 0.768579
vn -0.613883 0.180095 0.768579
vn -0.613883 0.180095 0.768579
vn -0.920678 0.180096 -0.346292
vn -0.920678 0.180096 -0.346292
vn -0.920678 0.180096 -0.346292
vn 0.044901 0.180104 -0.982622
vn 0.044901 0.180104 -0.982622
vn 0.044901 0.180104 -0.982622
vn 0.948416 0.180103 -0.260904
vn 0.948416 0.180103 -0.260904
vn 0.948416 0.180103 -0.260904
vn 0.670601 0.559401 -0.487201
vn 0.670601 0.559401 -0.487201
vn 0.670601 0.559401 -0.487201
vn 0.781203 0.259901 -0.567603
vn 0.781203 0.259901 -0.567603
vn 0.781203 0.259901 -0.567603
vn 0.541262 0.180087 -0.821343
vn 0.541262 0.180087 -0.821343
vn 0.541262 0.180087 -0.821343
vn -0.256109 0.559419 -0.788327
vn -0.256109 0.559419 -0.788327
vn -0.256109 0.559419 -0.788327
vn -0.298393 0.259894 -0.918377
vn -0.298393 0.259894 -0.918377
vn -0.298393 0.259894 -0.918377
vn -0.613883 0.180095 -0.768579
vn -0.613883 0.180095 -0.768579
vn -0.613883 0.180095 -0.768579
vn -0.828899 0.559399 0.000000
vn -0.828899 0.559399 0.000000
vn -0.828899 0.559399 0.000000
vn -0.965633 0.259909 0.000000
vn -0.965633 0.259909 0.000000
vn -0.965633 0.259909 0.000000
vn -0.920678 0.180096 0.346292
vn -0.920678 0.180096 0.346292
vn -0.920678 0.180096 0.346292
vn -0.256109 0.559419 0.788327
vn -0.256109 0.559419 0.788327
vn -0.256109 0.559419 0.788327
vn -0.298393 0.259894 0.918377
vn -0.298393 0.259894 0.918377
vn -0.298393 0.259894 0.918377
vn 0.044901 0.180104 0.982622
vn 0.044901 0.180104 0.982622
vn 0.044901 0.180104 0.982622
vn 0.670601 0.559401 0.487201
vn 0.670601 0.559401 0.487201
vn 0.670601 0.559401 0.487201
vn 0.781203 0.259901 0.567603
vn 0.781203 0.259901 0.567603
vn 0.781203 0.259901 0.567603
vn 0.948416 0.180103 0.260904
vn 0.948416 0.180103 0.260904
vn 0.948416 0.180103 0.260904
vn 0.941766 0.088597 -0.324388
vn 0.941766 0.088597 -0.324388
vn 0.941766 0.088597 -0.324388
vn 0.808097 0.047900 -0.587098
vn 0.808097 0.047900 -0.587098
vn 0.808097 0.047900 -0.587098
vn 0.599527 0.088604 -0.795435
vn 0.599527 0.088604 -0.795435
vn 0.599527 0.088604 -0.795435
vn -0.017500 0.088601 -0.995914
vn -0.017500 0.088601 -0.995914
vn -0.017500 0.088601 -0.995914
vn -0.308686 0.047898 -0.949957
vn -0.308686 0.047898 -0.949957
vn -0.308686 0.047898 -0.949957
vn -0.571207 0.088601 -0.816010
vn -0.571207 0.088601 -0.816010
vn -0.571207 0.088601 -0.816010
vn -0.952583 0.088598 -0.291095
vn -0.952583 0.088598 -0.291095
vn -0.952583 0.088598 -0.291095
vn -0.998852 0.047898 0.000000
vn -0.998852 0.047898 0.000000
vn -0.998852 0.047898 0.000000
vn -0.952583 0.088598 0.291095
vn -0.952583 0.088598 0.291095
vn -0.952583 0.088598 0.291095
vn -0.571207 0.088601 0.816010
vn -0.571207 0.088601 0.816010
vn -0.571207 0.088601 0.816010
vn -0.308686 0.047898 0.949957
vn -0.308686 0.047898 0.949957
vn -0.308686 0.047898 0.949957
vn -0.017500 0.088601 0.995914
vn -0.017500 0.088601 0.995914
vn -0.017500 0.088601 0.995914
vn 0.599527 0.088604 0.795435
vn 0.599527 0.088604 0.795435
vn 0.599527 0.088604 0.795435
vn 0.808097 0.047900 0.587098
vn 0.808097 0.047900 0.587098
vn 0.808097 0.047900 0.587098
vn 0.941766 0.088597 0.324388
vn 0.941766 0.088597 0.324388
vn 0.941766 0.088597 0.324388
vn 0.308910 0.032601 -0.950532
vn 0.308910 0.032601 -0.950532
vn 0.308910 0.032601 -0.950532
vn 0.308304 -0.068601 -0.948811
vn 0.308304 -0.068601 -0.948811
vn 0.308304 -0.068601 -0.948811
vn 0.034502 -0.123505 -0.991744
vn 0.034502 -0.123505 -0.991744
vn 0.034502 -0.123505 -0.991744
vn -0.808579 0.032599 -0.587484
vn -0.808579 0.032599 -0.587484
vn -0.808579 0.032599 -0.587484
vn -0.807108 -0.068601 -0.586405
vn -0.807108 -0.068601 -0.586405
vn -0.807108 -0.068601 -0.586405
vn -0.932531 -0.123504 -0.339311
vn -0.932531 -0.123504 -0.339311
vn -0.932531 -0.123504 -0.339311
vn -0.808579 0.032599 0.587484
vn -0.808579 0.032599 0.587484
vn -0.808579 0.032599 0.587484
vn -0.807108 -0.068601 0.586405
vn -0.807108 -0.068601 0.586405
vn -0.807108 -0.068601 0.586405
vn -0.610908 -0.123502 0.782010
vn -0.610908 -0.123502 0.782010
vn -0.610908 -0.123502 0.782010
vn 0.308910 0.032601 0.950532
vn 0.308910 0.032601 0.950532
vn 0.308910 0.032601 0.950532
vn 0.308304 -0.068601 0.948811
vn 0.308304 -0.068601 0.948811
vn 0.308304 -0.068601 0.948811
vn 0.555014 -0.123503 0.822621
vn 0.555014 -0.123503 0.822621
vn 0.555014 -0.123503 0.822621
vn 0.999469 0.032599 0.000000
vn 0.999469 0.032599 0.000000
vn 0.999469 0.032599 0.000000
vn 0.997644 -0.068603 0.000000
vn 0.997644 -0.068603 0.000000
vn 0.997644 -0.068603 0.000000
vn 0.953884 -0.123498 -0.273595
vn 0.953884 -0.123498 -0.273595
vn 0.953884 -0.123498 -0.273595
vn 0.590315 -0.397310 -0.702618
vn 0.590315 -0.397310 -0.702618
vn 0.590315 -0.397310 -0.702618
vn 0.257692 -0.551784 -0.793177
vn 0.257692 -0.551784 -0.793177
vn 0.257692 -0.551784 -0.793177
vn -0.064601 -0.397304 -0.915410
vn -0.064601 -0.397304 -0.915410
vn -0.064601 -0.397304 -0.915410
vn -0.485822 -0.397318 -0.778535
vn -0.485822 -0.397318 -0.778535
vn -0.485822 -0.397318 -0.778535
vn -0.674700 -0.551800 -0.490200
vn -0.674700 -0.551800 -0.490200
vn -0.674700 -0.551800 -0.490200
vn -0.890565 -0.397285 -0.221491
vn -0.890565 -0.397285 -0.221491
vn -0.890565 -0.397285 -0.221491
vn -0.890565 -0.397285 0.221491
vn -0.890565 -0.397285 0.221491
vn -0.890565 -0.397285 0.221491
vn -0.674700 -0.551800 0.490200
vn -0.674700 -0.551800 0.490200
vn -0.674700 -0.551800 0.490200
vn -0.485822 -0.397318 0.778535
vn -0.485822 -0.397318 0.778535
vn -0.485822 -0.397318 0.778535
vn 0.850666 -0.397284 -0.344286
vn 0.850666 -0.397284 -0.344286
vn 0.850666 -0.397284 -0.344286
vn 0.833984 -0.551789 0.000000
vn 0.833984 -0.551789 0.000000
vn 0.833984 -0.551789 0.000000
vn 0.484811 -0.874619 0.000000
vn 0.484811 -0.874619 0.000000
vn 0.484811 -0.874619 0.000000
vn -0.064601 -0.397304 0.915410
vn -0.064601 -0.397304 0.915410
vn -0.064601 -0.397304 0.915410
vn 0.257692 -0.551784 0.793177
vn 0.257692 -0.551784 0.793177
vn 0.257692 -0.551784 0.793177
vn 0.590315 -0.397310 0.702618
vn 0.590315 -0.397310 0.702618
vn 0.590315 -0.397310 0.702618
s off
g Low_Poly_Models:Mesh arbolito
usemtl lambert2SG
f 11//31 12//32 13//33
f 14//34 12//35 15//36
f 11//37 13//38 16//39
f 11//40 16//41 17//42
f 11//43 17//44 18//45
f 14//46 15//47 19//48
f 20//49 21//50 22//51
f 23//52 24//53 25//54
f 26//55 27//56 28//57
f 29//58 30//59 31//60
f 14//61 19//62 32//63
f 20//64 22//65 33//66
f 23//67 25//68 34//69
f 26//70 28//71 35//72
f 29//73 31//74 36//75
f 37//76 38//77 39//78
f 40//79 41//80 42//81
f 43//82 44//83 45//84
f 46//85 47//86 48//87
f 49//88 50//89 51//90
f 51//91 48//92 52//93
f 51//94 50//95 48//96
f 50//97 46//98 48//99
f 48//100 45//101 52//102
f 48//103 47//104 45//105
f 47//106 43//107 45//108
f 45//109 42//110 52//111
f 45//112 44//113 42//114
f 44//115 40//116 42//117
f 42//118 39//119 52//120
f 42//121 41//122 39//123
f 41//124 37//125 39//126
f 39//127 51//128 52//129
f 39//130 38//131 51//132
f 38//133 49//134 51//135
f 36//136 50//137 49//138
f 36//139 31//140 50//141
f 31//142 46//143 50//144
f 35//145 47//146 46//147
f 35//148 28//149 47//150
f 28//151 43//152 47//153
f 34//154 44//155 43//156
f 34//157 25//158 44//159
f 25//160 40//161 44//162
f 33//163 41//164 40//165
f 33//166 22//167 41//168
f 22//169 37//170 41//171
f 32//172 38//173 37//174
f 32//175 19//176 38//177
f 19//178 49//179 38//180
f 31//181 35//182 46//183
f 31//184 30//185 35//186
f 30//187 26//188 35//189
f 28//190 34//191 43//192
f 28//193 27//194 34//195
f 27//196 23//197 34//198
f 25//199 33//200 40//201
f 25//202 24//203 33//204
f 24//205 20//206 33//207
f 22//208 32//209 37//210
f 22//211 21//212 32//213
f 21//214 14//215 32//216
f 19//217 36//218 49//219
f 19//220 15//221 36//222
f 15//223 29//224 36//225
f 18//226 30//227 29//228
f 18//229 17//230 30//231
f 17//232 26//233 30//234
f 17//235 27//236 26//237
f 17//238 16//239 27//240
f 16//241 23//242 27//243
f 16//244 24//245 23//246
f 16//247 13//248 24//249
f 13//250 20//251 24//252
f 15//253 18//254 29//255
f 15//256 12//257 18//258
f 12//259 11//260 18//261
f 13//262 21//263 20//264
f 13//265 12//266 21//267
f 12//268 14//269 21//270
