# This file uses centimeters as units for non-parametric coordinates.

mtllib fence.mtl
g default
v 1.217317 1.173713 -14.338985
v 1.203747 1.333121 -14.330993
v 1.176770 1.333121 -14.376791
v 1.190339 1.173713 -14.384784
v -0.809686 1.105360 -13.206669
v -0.796116 0.945952 -13.214662
v -0.782709 1.105360 -13.160871
v -0.769139 0.945952 -13.168863
v 1.209684 0.513070 -14.334490
v 1.217689 0.672985 -14.339205
v 1.190712 0.672985 -14.385003
v 1.182706 0.513070 -14.380287
v -0.802053 0.807362 -13.211164
v -0.810058 0.647448 -13.206450
v -0.775076 0.807362 -13.165367
v -0.783081 0.647448 -13.160651
v -0.686196 0.214622 -13.087310
v -0.744293 0.214622 -13.185939
v -0.645665 0.214622 -13.244036
v -0.587568 0.214622 -13.145407
v -0.686196 1.433012 -13.087310
v -0.587568 1.433012 -13.145407
v -0.645665 1.433012 -13.244036
v -0.744293 1.433012 -13.185939
v 1.044077 0.214622 -14.106527
v 0.985980 0.214622 -14.205156
v 1.084609 0.214622 -14.263253
v 1.142706 0.214622 -14.164625
v 1.044077 1.433012 -14.106528
v 1.142706 1.433012 -14.164625
v 1.084609 1.433012 -14.263254
v 0.985980 1.433012 -14.205156
vn 0.857446 0.098318 -0.505095
vn 0.857446 0.098318 -0.505095
vn 0.857446 0.098317 -0.505095
vn 0.857446 0.098318 -0.505095
vn -0.507542 -0.000002 -0.861627
vn -0.507542 -0.000002 -0.861627
vn -0.507542 -0.000002 -0.861627
vn -0.507542 -0.000002 -0.861627
vn -0.857449 -0.098320 0.505088
vn -0.857449 -0.098320 0.505088
vn -0.857449 -0.098320 0.505088
vn -0.857449 -0.098320 0.505088
vn 0.507542 0.000004 0.861627
vn 0.507542 0.000004 0.861627
vn 0.507542 0.000004 0.861627
vn 0.507542 0.000004 0.861627
vn 0.084709 -0.995156 -0.049897
vn 0.084709 -0.995156 -0.049897
vn 0.084709 -0.995156 -0.049897
vn 0.084709 -0.995156 -0.049897
vn -0.084709 0.995155 0.049899
vn -0.084709 0.995156 0.049899
vn -0.084709 0.995156 0.049899
vn -0.084709 0.995156 0.049899
vn 0.860174 -0.058002 -0.506692
vn 0.860174 -0.058002 -0.506692
vn 0.860174 -0.058002 -0.506692
vn 0.860174 -0.058002 -0.506692
vn -0.507541 0.000004 -0.861627
vn -0.507541 0.000004 -0.861627
vn -0.507541 0.000004 -0.861627
vn -0.507541 0.000004 -0.861627
vn -0.860180 0.058000 0.506682
vn -0.860180 0.058000 0.506682
vn -0.860180 0.058000 0.506682
vn -0.860180 0.058000 0.506682
vn 0.507542 0.000001 0.861627
vn 0.507542 0.000001 0.861627
vn 0.507542 0.000001 0.861627
vn 0.507542 0.000001 0.861627
vn -0.049979 -0.998316 0.029440
vn -0.049979 -0.998316 0.029440
vn -0.049979 -0.998316 0.029440
vn -0.049979 -0.998316 0.029440
vn 0.049978 0.998316 -0.029439
vn 0.049978 0.998316 -0.029439
vn 0.049978 0.998316 -0.029439
vn 0.049978 0.998316 -0.029439
vn 0.000000 -1.000000 0.000000
vn 0.000000 -1.000000 0.000000
vn 0.000000 -1.000000 0.000000
vn 0.000000 -1.000000 0.000000
vn 0.000000 1.000000 0.000000
vn 0.000000 1.000000 0.000000
vn 0.000000 1.000000 0.000000
vn 0.000000 1.000000 0.000000
vn -0.861638 0.000000 0.507523
vn -0.861638 0.000000 0.507523
vn -0.861638 0.000000 0.507523
vn -0.861638 0.000000 0.507523
vn -0.507523 0.000000 -0.861638
vn -0.507523 0.000000 -0.861638
vn -0.507523 0.000000 -0.861638
vn -0.507523 0.000000 -0.861638
vn 0.861638 0.000000 -0.507523
vn 0.861638 0.000000 -0.507523
vn 0.861638 0.000000 -0.507523
vn 0.861638 0.000000 -0.507523
vn 0.507523 0.000000 0.861638
vn 0.507523 0.000000 0.861638
vn 0.507523 0.000000 0.861638
vn 0.507523 0.000000 0.861638
vn 0.000000 -1.000000 0.000000
vn 0.000000 -1.000000 0.000000
vn 0.000000 -1.000000 0.000000
vn 0.000000 -1.000000 0.000000
vn 0.000000 1.000000 0.000000
vn 0.000000 1.000000 0.000000
vn 0.000000 1.000000 0.000000
vn 0.000000 1.000000 0.000000
vn -0.861638 0.000000 0.507523
vn -0.861638 0.000000 0.507523
vn -0.861638 0.000000 0.507523
vn -0.861638 0.000000 0.507523
vn -0.507523 0.000000 -0.861638
vn -0.507523 0.000000 -0.861638
vn -0.507523 0.000000 -0.861638
vn -0.507523 0.000000 -0.861638
vn 0.861638 0.000000 -0.507523
vn 0.861638 0.000000 -0.507523
vn 0.861638 0.000000 -0.507523
vn 0.861638 0.000000 -0.507523
vn 0.507523 0.000000 0.861638
vn 0.507523 0.000000 0.861638
vn 0.507523 0.000000 0.861638
vn 0.507523 0.000000 0.861638
s off
g fence
usemtl lambert2SG
f 1//1 4//2 3//3 2//4
f 4//5 6//6 5//7 3//8
f 6//9 8//10 7//11 5//12
f 8//13 1//14 2//15 7//16
f 4//17 1//18 8//19 6//20
f 5//21 7//22 2//23 3//24
f 9//25 12//26 11//27 10//28
f 12//29 14//30 13//31 11//32
f 14//33 16//34 15//35 13//36
f 16//37 9//38 10//39 15//40
f 12//41 9//42 16//43 14//44
f 13//45 15//46 10//47 11//48
f 17//49 18//50 19//51 20//52
f 21//53 22//54 23//55 24//56
f 17//57 21//58 24//59 18//60
f 18//61 24//62 23//63 19//64
f 19//65 23//66 22//67 20//68
f 21//69 17//70 20//71 22//72
f 25//73 26//74 27//75 28//76
f 29//77 30//78 31//79 32//80
f 25//81 29//82 32//83 26//84
f 26//85 32//86 31//87 27//88
f 27//89 31//90 30//91 28//92
f 29//93 25//94 28//95 30//96
