# This file uses centimeters as units for non-parametric coordinates.

mtllib teja.mtl
g default
v -2.099502 0.228208 -16.015761
v 0.319289 0.348430 -14.998564
v 0.355623 0.383347 -15.089090
v -2.063168 0.263125 -16.106287
v -2.100938 0.262218 -16.016366
v 0.317852 0.382441 -14.999166
v 0.265482 0.382441 -14.874633
v -2.153310 0.262218 -15.891833
v 0.266917 0.348430 -14.874031
v -2.151874 0.228208 -15.891228
v 0.397083 0.383347 -15.187679
v -2.021707 0.263125 -16.204879
v 0.354186 0.417358 -15.089692
v -2.064604 0.297135 -16.106891
v 0.430741 0.347659 -15.263494
v -1.988049 0.227436 -16.280694
v 0.395648 0.417358 -15.188284
v -2.023144 0.297135 -16.205480
v 0.474128 0.347659 -15.366663
v -1.944664 0.227436 -16.383859
v 0.429305 0.381669 -15.264099
v -1.989487 0.261447 -16.281296
v 0.505255 0.372961 -15.443671
v -1.913535 0.252740 -16.460871
v 0.472690 0.381669 -15.367268
v -1.946100 0.261447 -16.384464
v 0.545718 0.372961 -15.539887
v -1.873073 0.252740 -16.557084
v 0.503819 0.406972 -15.444276
v -1.914973 0.286749 -16.461473
v 0.584654 0.333829 -15.627847
v -1.834138 0.213606 -16.645047
v 0.544281 0.406972 -15.540492
v -1.874509 0.286749 -16.557688
v 0.619139 0.333829 -15.709847
v -1.799653 0.213606 -16.727044
v 0.583216 0.367840 -15.628452
v -1.835574 0.247617 -16.645648
v 0.650753 0.366360 -15.788870
v -1.768038 0.246139 -16.806070
v 0.617701 0.367840 -15.710452
v -1.801089 0.247617 -16.727649
v 0.694852 0.366360 -15.893734
v -1.723940 0.246139 -16.910930
v 0.649318 0.400371 -15.789475
v -1.769474 0.280148 -16.806675
v 0.726932 0.327043 -15.965368
v -1.691858 0.206820 -16.982568
v 0.693416 0.400371 -15.894335
v -1.725376 0.280148 -16.911535
v 0.773460 0.327043 -16.076008
v -1.645330 0.206820 -17.093205
v 0.725496 0.361054 -15.965973
v -1.693296 0.240831 -16.983173
v 0.808981 0.360363 -16.164410
v -1.609811 0.240140 -17.181610
v 0.772024 0.361054 -16.076610
v -1.646768 0.240831 -17.093810
v 0.847059 0.360363 -16.254959
v -1.571731 0.240140 -17.272156
v 0.807545 0.394373 -16.165015
v -1.611246 0.274150 -17.182212
v 0.883506 0.334873 -16.338611
v -1.535284 0.214651 -17.355811
v 0.845623 0.394373 -16.255561
v -1.573167 0.274150 -17.272761
v 0.882070 0.368884 -16.339216
v -1.536721 0.248661 -17.356413
vn 0.170499 -0.940386 -0.294288
vn 0.170499 -0.940386 -0.294288
vn 0.170499 -0.940386 -0.294288
vn 0.170499 -0.940386 -0.294288
vn -0.042192 0.998952 -0.017743
vn -0.042192 0.998952 -0.017743
vn -0.042192 0.998952 -0.017743
vn -0.042192 0.998952 -0.017743
vn -0.387652 -0.000016 0.921806
vn -0.387652 -0.000016 0.921806
vn -0.387652 -0.000016 0.921806
vn -0.387652 -0.000016 0.921806
vn 0.042189 -0.998952 0.017743
vn 0.042189 -0.998952 0.017743
vn 0.042189 -0.998952 0.017743
vn 0.042189 -0.998952 0.017743
vn -0.920836 -0.045764 -0.387256
vn -0.920836 -0.045764 -0.387256
vn -0.920836 -0.045764 -0.387256
vn -0.920836 -0.045764 -0.387256
vn 0.920844 0.045747 0.387239
vn 0.920844 0.045747 0.387239
vn 0.920844 0.045747 0.387239
vn 0.920844 0.045747 0.387239
vn 0.042190 -0.998952 0.017742
vn 0.042190 -0.998952 0.017742
vn 0.042190 -0.998952 0.017742
vn 0.042190 -0.998952 0.017742
vn 0.920835 0.045774 0.387256
vn 0.920835 0.045774 0.387256
vn 0.920835 0.045774 0.387256
vn 0.920835 0.045774 0.387256
vn -0.170500 0.940385 0.294288
vn -0.170500 0.940385 0.294288
vn -0.170500 0.940385 0.294288
vn -0.170500 0.940385 0.294288
vn -0.920841 -0.045766 -0.387244
vn -0.920841 -0.045766 -0.387244
vn -0.920841 -0.045766 -0.387244
vn -0.920841 -0.045766 -0.387244
vn -0.114617 -0.917450 0.380982
vn -0.114617 -0.917450 0.380982
vn -0.114617 -0.917450 0.380982
vn -0.114617 -0.917450 0.380982
vn 0.920838 0.045768 0.387250
vn 0.920838 0.045768 0.387250
vn 0.920838 0.045768 0.387250
vn 0.920838 0.045768 0.387250
vn -0.042190 0.998952 -0.017743
vn -0.042190 0.998952 -0.017743
vn -0.042190 0.998952 -0.017743
vn -0.042190 0.998952 -0.017743
vn -0.920834 -0.045764 -0.387260
vn -0.920834 -0.045764 -0.387260
vn -0.920834 -0.045764 -0.387260
vn -0.920834 -0.045764 -0.387260
vn 0.042190 -0.998952 0.017743
vn 0.042190 -0.998952 0.017743
vn 0.042190 -0.998952 0.017743
vn 0.042190 -0.998952 0.017743
vn 0.920842 0.045763 0.387242
vn 0.920842 0.045763 0.387242
vn 0.920842 0.045763 0.387242
vn 0.920842 0.045763 0.387242
vn 0.114617 0.917450 -0.380983
vn 0.114617 0.917450 -0.380983
vn 0.114617 0.917450 -0.380983
vn 0.114617 0.917450 -0.380983
vn -0.920844 -0.045767 -0.387236
vn -0.920844 -0.045767 -0.387236
vn -0.920844 -0.045767 -0.387236
vn -0.920844 -0.045767 -0.387236
vn 0.153435 -0.955507 -0.251922
vn 0.153435 -0.955507 -0.251922
vn 0.153435 -0.955507 -0.251922
vn 0.153435 -0.955507 -0.251922
vn 0.920838 0.045789 0.387248
vn 0.920838 0.045789 0.387248
vn 0.920838 0.045789 0.387248
vn 0.920838 0.045789 0.387248
vn -0.042189 0.998952 -0.017742
vn -0.042189 0.998952 -0.017742
vn -0.042189 0.998952 -0.017742
vn -0.042189 0.998952 -0.017742
vn -0.920831 -0.045774 -0.387265
vn -0.920831 -0.045774 -0.387265
vn -0.920831 -0.045774 -0.387265
vn -0.920831 -0.045774 -0.387265
vn 0.042190 -0.998952 0.017742
vn 0.042190 -0.998952 0.017742
vn 0.042190 -0.998952 0.017742
vn 0.042190 -0.998952 0.017742
vn 0.920834 0.045788 0.387258
vn 0.920834 0.045788 0.387258
vn 0.920834 0.045788 0.387258
vn 0.920834 0.045788 0.387258
vn -0.153437 0.955505 0.251928
vn -0.153437 0.955505 0.251928
vn -0.153437 0.955505 0.251928
vn -0.153437 0.955505 0.251928
vn -0.920839 -0.045775 -0.387247
vn -0.920839 -0.045775 -0.387247
vn -0.920839 -0.045775 -0.387247
vn -0.920839 -0.045775 -0.387247
vn -0.107160 -0.925152 0.364157
vn -0.107160 -0.925152 0.364157
vn -0.107160 -0.925152 0.364157
vn -0.107160 -0.925152 0.364157
vn 0.920835 0.045787 0.387256
vn 0.920835 0.045787 0.387256
vn 0.920835 0.045787 0.387256
vn 0.920835 0.045787 0.387256
vn -0.042190 0.998952 -0.017743
vn -0.042190 0.998952 -0.017743
vn -0.042190 0.998952 -0.017743
vn -0.042190 0.998952 -0.017743
vn -0.920835 -0.045764 -0.387257
vn -0.920835 -0.045764 -0.387257
vn -0.920835 -0.045764 -0.387257
vn -0.920835 -0.045764 -0.387257
vn 0.042191 -0.998952 0.017743
vn 0.042191 -0.998952 0.017743
vn 0.042191 -0.998952 0.017743
vn 0.042191 -0.998952 0.017743
vn 0.920847 0.045809 0.387224
vn 0.920847 0.045809 0.387224
vn 0.920847 0.045809 0.387224
vn 0.920847 0.045809 0.387224
vn 0.107157 0.925153 -0.364156
vn 0.107157 0.925153 -0.364156
vn 0.107157 0.925153 -0.364156
vn 0.107157 0.925153 -0.364156
vn -0.920829 -0.045747 -0.387274
vn -0.920829 -0.045747 -0.387274
vn -0.920829 -0.045747 -0.387274
vn -0.920829 -0.045747 -0.387274
vn 0.177953 -0.932971 -0.312888
vn 0.177953 -0.932971 -0.312888
vn 0.177953 -0.932971 -0.312888
vn 0.177953 -0.932971 -0.312888
vn 0.920835 0.045810 0.387253
vn 0.920835 0.045810 0.387253
vn 0.920835 0.045810 0.387253
vn 0.920835 0.045810 0.387253
vn -0.042190 0.998952 -0.017743
vn -0.042190 0.998952 -0.017743
vn -0.042190 0.998952 -0.017743
vn -0.042190 0.998952 -0.017743
vn -0.920842 -0.045743 -0.387244
vn -0.920842 -0.045743 -0.387244
vn -0.920842 -0.045743 -0.387244
vn -0.920842 -0.045743 -0.387244
vn 0.042190 -0.998952 0.017742
vn 0.042190 -0.998952 0.017742
vn 0.042190 -0.998952 0.017742
vn 0.042190 -0.998952 0.017742
vn 0.920836 0.045786 0.387254
vn 0.920836 0.045786 0.387254
vn 0.920836 0.045786 0.387254
vn 0.920836 0.045786 0.387254
vn -0.177950 0.932974 0.312878
vn -0.177950 0.932974 0.312878
vn -0.177950 0.932974 0.312878
vn -0.177950 0.932974 0.312878
vn -0.920843 -0.045763 -0.387238
vn -0.920843 -0.045763 -0.387238
vn -0.920843 -0.045763 -0.387238
vn -0.920843 -0.045763 -0.387238
vn -0.136090 -0.892926 0.429142
vn -0.136090 -0.892926 0.429142
vn -0.136090 -0.892926 0.429142
vn -0.136090 -0.892926 0.429142
vn 0.920839 0.045744 0.387251
vn 0.920839 0.045744 0.387251
vn 0.920839 0.045744 0.387251
vn 0.920839 0.045744 0.387251
vn -0.042190 0.998952 -0.017742
vn -0.042190 0.998952 -0.017742
vn -0.042190 0.998952 -0.017742
vn -0.042190 0.998952 -0.017742
vn -0.920835 -0.045766 -0.387259
vn -0.920835 -0.045766 -0.387259
vn -0.920835 -0.045766 -0.387259
vn -0.920835 -0.045766 -0.387259
vn 0.042191 -0.998952 0.017743
vn 0.042191 -0.998952 0.017743
vn 0.042191 -0.998952 0.017743
vn 0.042191 -0.998952 0.017743
vn 0.920840 0.045742 0.387248
vn 0.920840 0.045742 0.387248
vn 0.920840 0.045742 0.387248
vn 0.920840 0.045742 0.387248
vn 0.136085 0.892933 -0.429129
vn 0.136085 0.892933 -0.429129
vn 0.136085 0.892933 -0.429129
vn 0.136085 0.892933 -0.429129
vn -0.920848 -0.045781 -0.387224
vn -0.920848 -0.045781 -0.387224
vn -0.920848 -0.045781 -0.387224
vn -0.920848 -0.045781 -0.387224
vn 0.167928 -0.942829 -0.287878
vn 0.167928 -0.942829 -0.287878
vn 0.167928 -0.942829 -0.287878
vn 0.167928 -0.942829 -0.287878
vn 0.920839 0.045745 0.387250
vn 0.920839 0.045745 0.387250
vn 0.920839 0.045745 0.387250
vn 0.920839 0.045745 0.387250
vn -0.042190 0.998952 -0.017743
vn -0.042190 0.998952 -0.017743
vn -0.042190 0.998952 -0.017743
vn -0.042190 0.998952 -0.017743
vn -0.920836 -0.045815 -0.387249
vn -0.920836 -0.045815 -0.387249
vn -0.920836 -0.045815 -0.387249
vn -0.920836 -0.045815 -0.387249
vn 0.042189 -0.998952 0.017743
vn 0.042189 -0.998952 0.017743
vn 0.042189 -0.998952 0.017743
vn 0.042189 -0.998952 0.017743
vn 0.920843 0.045743 0.387241
vn 0.920843 0.045743 0.387241
vn 0.920843 0.045743 0.387241
vn 0.920843 0.045743 0.387241
vn -0.167926 0.942830 0.287876
vn -0.167926 0.942830 0.287876
vn -0.167926 0.942830 0.287876
vn -0.167926 0.942830 0.287876
vn -0.920847 -0.045763 -0.387230
vn -0.920847 -0.045763 -0.387230
vn -0.920847 -0.045763 -0.387230
vn -0.920847 -0.045763 -0.387230
vn -0.063773 -0.962042 0.265345
vn -0.063773 -0.962042 0.265345
vn -0.063773 -0.962042 0.265345
vn -0.063773 -0.962042 0.265345
vn 0.920837 0.045746 0.387255
vn 0.920837 0.045746 0.387255
vn 0.920837 0.045746 0.387255
vn 0.920837 0.045746 0.387255
vn -0.042190 0.998952 -0.017742
vn -0.042190 0.998952 -0.017742
vn -0.042190 0.998952 -0.017742
vn -0.042190 0.998952 -0.017742
vn -0.920831 -0.045746 -0.387270
vn -0.920831 -0.045746 -0.387270
vn -0.920831 -0.045746 -0.387269
vn -0.920831 -0.045746 -0.387270
vn 0.387659 0.000026 -0.921803
vn 0.387659 0.000026 -0.921803
vn 0.387659 0.000026 -0.921803
vn 0.387659 0.000026 -0.921803
vn 0.920843 0.045743 0.387241
vn 0.920843 0.045743 0.387241
vn 0.920843 0.045743 0.387241
vn 0.920843 0.045743 0.387241
vn 0.063773 0.962040 -0.265354
vn 0.063773 0.962040 -0.265354
vn 0.063773 0.962040 -0.265354
vn 0.063773 0.962040 -0.265354
vn -0.920838 -0.045774 -0.387251
vn -0.920838 -0.045774 -0.387250
vn -0.920838 -0.045774 -0.387251
vn -0.920838 -0.045774 -0.387250
s off
g teja Low_Poly_Models:Mesh
usemtl lambert2SG
f 1//1 4//2 3//3 2//4
f 5//5 8//6 7//7 6//8
f 8//9 10//10 9//11 7//12
f 10//13 1//14 2//15 9//16
f 5//17 1//18 10//19 8//20
f 7//21 9//22 2//23 6//24
f 4//25 12//26 11//27 3//28
f 2//29 3//30 13//31 6//32
f 6//33 13//34 14//35 5//36
f 5//37 14//38 4//39 1//40
f 12//41 16//42 15//43 11//44
f 3//45 11//46 17//47 13//48
f 13//49 17//50 18//51 14//52
f 14//53 18//54 12//55 4//56
f 16//57 20//58 19//59 15//60
f 11//61 15//62 21//63 17//64
f 17//65 21//66 22//67 18//68
f 18//69 22//70 16//71 12//72
f 20//73 24//74 23//75 19//76
f 15//77 19//78 25//79 21//80
f 21//81 25//82 26//83 22//84
f 22//85 26//86 20//87 16//88
f 24//89 28//90 27//91 23//92
f 19//93 23//94 29//95 25//96
f 25//97 29//98 30//99 26//100
f 26//101 30//102 24//103 20//104
f 28//105 32//106 31//107 27//108
f 23//109 27//110 33//111 29//112
f 29//113 33//114 34//115 30//116
f 30//117 34//118 28//119 24//120
f 32//121 36//122 35//123 31//124
f 27//125 31//126 37//127 33//128
f 33//129 37//130 38//131 34//132
f 34//133 38//134 32//135 28//136
f 36//137 40//138 39//139 35//140
f 31//141 35//142 41//143 37//144
f 37//145 41//146 42//147 38//148
f 38//149 42//150 36//151 32//152
f 40//153 44//154 43//155 39//156
f 35//157 39//158 45//159 41//160
f 41//161 45//162 46//163 42//164
f 42//165 46//166 40//167 36//168
f 44//169 48//170 47//171 43//172
f 39//173 43//174 49//175 45//176
f 45//177 49//178 50//179 46//180
f 46//181 50//182 44//183 40//184
f 48//185 52//186 51//187 47//188
f 43//189 47//190 53//191 49//192
f 49//193 53//194 54//195 50//196
f 50//197 54//198 48//199 44//200
f 52//201 56//202 55//203 51//204
f 47//205 51//206 57//207 53//208
f 53//209 57//210 58//211 54//212
f 54//213 58//214 52//215 48//216
f 56//217 60//218 59//219 55//220
f 51//221 55//222 61//223 57//224
f 57//225 61//226 62//227 58//228
f 58//229 62//230 56//231 52//232
f 60//233 64//234 63//235 59//236
f 55//237 59//238 65//239 61//240
f 61//241 65//242 66//243 62//244
f 62//245 66//246 60//247 56//248
f 64//249 68//250 67//251 63//252
f 59//253 63//254 67//255 65//256
f 65//257 67//258 68//259 66//260
f 66//261 68//262 64//263 60//264
